  0
SECTION
  2
HEADER
  9
$ACADVER
  1
AC1021
  9
$ACADMAINTVER
 70
     1
  9
$DWGCODEPAGE
  3
ANSI_1252
  9
$LASTSAVEDBY
  1
Misbah
  9
$INSBASE
 10
0.0
 20
0.0
 30
0.0
  9
$EXTMIN
 10
104.9281826299593
 20
241.019728006126
 30
-0.0015258207003583
  9
$EXTMAX
 10
159.9343478376524
 20
315.8622316567177
 30
0.0000000349246037
  9
$LIMMIN
 10
0.0
 20
0.0
  9
$LIMMAX
 10
500.0
 20
500.0
  9
$ORTHOMODE
 70
     1
  9
$REGENMODE
 70
     1
  9
$FILLMODE
 70
     1
  9
$QTEXTMODE
 70
     0
  9
$MIRRTEXT
 70
     0
  9
$LTSCALE
 40
1.0
  9
$ATTMODE
 70
     1
  9
$TEXTSIZE
 40
2.5
  9
$TRACEWID
 40
1.0
  9
$TEXTSTYLE
  7
Standard
  9
$CLAYER
  8
0
  9
$CELTYPE
  6
ByLayer
  9
$CECOLOR
 62
   256
  9
$CELTSCALE
 40
1.0
  9
$DISPSILH
 70
     0
  9
$DIMSCALE
 40
1.0
  9
$DIMASZ
 40
2.5
  9
$DIMEXO
 40
0.625
  9
$DIMDLI
 40
3.75
  9
$DIMRND
 40
0.0
  9
$DIMDLE
 40
0.0
  9
$DIMEXE
 40
1.25
  9
$DIMTP
 40
0.0
  9
$DIMTM
 40
0.0
  9
$DIMTXT
 40
2.5
  9
$DIMCEN
 40
2.5
  9
$DIMTSZ
 40
0.0
  9
$DIMTOL
 70
     0
  9
$DIMLIM
 70
     0
  9
$DIMTIH
 70
     0
  9
$DIMTOH
 70
     0
  9
$DIMSE1
 70
     0
  9
$DIMSE2
 70
     0
  9
$DIMTAD
 70
     1
  9
$DIMZIN
 70
     8
  9
$DIMBLK
  1

  9
$DIMASO
 70
     1
  9
$DIMSHO
 70
     1
  9
$DIMPOST
  1

  9
$DIMAPOST
  1

  9
$DIMALT
 70
     0
  9
$DIMALTD
 70
     3
  9
$DIMALTF
 40
0.03937007874016
  9
$DIMLFAC
 40
1.0
  9
$DIMTOFL
 70
     1
  9
$DIMTVP
 40
0.0
  9
$DIMTIX
 70
     0
  9
$DIMSOXD
 70
     0
  9
$DIMSAH
 70
     0
  9
$DIMBLK1
  1

  9
$DIMBLK2
  1

  9
$DIMSTYLE
  2
ISO-25
  9
$DIMCLRD
 70
     0
  9
$DIMCLRE
 70
     0
  9
$DIMCLRT
 70
     0
  9
$DIMTFAC
 40
1.0
  9
$DIMGAP
 40
0.625
  9
$DIMJUST
 70
     0
  9
$DIMSD1
 70
     0
  9
$DIMSD2
 70
     0
  9
$DIMTOLJ
 70
     0
  9
$DIMTZIN
 70
     8
  9
$DIMALTZ
 70
     0
  9
$DIMALTTZ
 70
     0
  9
$DIMUPT
 70
     0
  9
$DIMDEC
 70
     1
  9
$DIMTDEC
 70
     1
  9
$DIMALTU
 70
     2
  9
$DIMALTTD
 70
     3
  9
$DIMTXSTY
  7
Standard
  9
$DIMAUNIT
 70
     0
  9
$DIMADEC
 70
     0
  9
$DIMALTRND
 40
0.0
  9
$DIMAZIN
 70
     0
  9
$DIMDSEP
 70
    44
  9
$DIMATFIT
 70
     3
  9
$DIMFRAC
 70
     0
  9
$DIMLDRBLK
  1

  9
$DIMLUNIT
 70
     2
  9
$DIMLWD
 70
    -2
  9
$DIMLWE
 70
    -2
  9
$DIMTMOVE
 70
     0
  9
$DIMFXL
 40
1.0
  9
$DIMFXLON
 70
     0
  9
$DIMJOGANG
 40
0.7853981633974483
  9
$DIMTFILL
 70
     0
  9
$DIMTFILLCLR
 70
     0
  9
$DIMARCSYM
 70
     0
  9
$DIMLTYPE
  6

  9
$DIMLTEX1
  6

  9
$DIMLTEX2
  6

  9
$LUNITS
 70
     2
  9
$LUPREC
 70
     1
  9
$SKETCHINC
 40
1.0
  9
$FILLETRAD
 40
0.0
  9
$AUNITS
 70
     0
  9
$AUPREC
 70
     0
  9
$MENU
  1
.
  9
$ELEVATION
 40
0.0
  9
$PELEVATION
 40
0.0
  9
$THICKNESS
 40
0.0
  9
$LIMCHECK
 70
     0
  9
$CHAMFERA
 40
0.0
  9
$CHAMFERB
 40
0.0
  9
$CHAMFERC
 40
0.0
  9
$CHAMFERD
 40
0.0
  9
$SKPOLY
 70
     0
  9
$TDCREATE
 40
2459689.481118113
  9
$TDUCREATE
 40
2459689.251951447
  9
$TDUPDATE
 40
2459689.520115486
  9
$TDUUPDATE
 40
2459689.290948820
  9
$TDINDWG
 40
0.0389974769
  9
$TDUSRTIMER
 40
0.0389974421
  9
$USRTIMER
 70
     1
  9
$ANGBASE
 50
0.0
  9
$ANGDIR
 70
     0
  9
$PDMODE
 70
     0
  9
$PDSIZE
 40
0.0
  9
$PLINEWID
 40
0.0
  9
$SPLFRAME
 70
     0
  9
$SPLINETYPE
 70
     6
  9
$SPLINESEGS
 70
     8
  9
$HANDSEED
  5
4E8
  9
$SURFTAB1
 70
     6
  9
$SURFTAB2
 70
     6
  9
$SURFTYPE
 70
     6
  9
$SURFU
 70
     6
  9
$SURFV
 70
     6
  9
$UCSBASE
  2

  9
$UCSNAME
  2

  9
$UCSORG
 10
0.0
 20
0.0
 30
0.0
  9
$UCSXDIR
 10
1.0
 20
0.0
 30
0.0
  9
$UCSYDIR
 10
0.0
 20
1.0
 30
0.0
  9
$UCSORTHOREF
  2

  9
$UCSORTHOVIEW
 70
     0
  9
$UCSORGTOP
 10
0.0
 20
0.0
 30
0.0
  9
$UCSORGBOTTOM
 10
0.0
 20
0.0
 30
0.0
  9
$UCSORGLEFT
 10
0.0
 20
0.0
 30
0.0
  9
$UCSORGRIGHT
 10
0.0
 20
0.0
 30
0.0
  9
$UCSORGFRONT
 10
0.0
 20
0.0
 30
0.0
  9
$UCSORGBACK
 10
0.0
 20
0.0
 30
0.0
  9
$PUCSBASE
  2

  9
$PUCSNAME
  2

  9
$PUCSORG
 10
0.0
 20
0.0
 30
0.0
  9
$PUCSXDIR
 10
1.0
 20
0.0
 30
0.0
  9
$PUCSYDIR
 10
0.0
 20
1.0
 30
0.0
  9
$PUCSORTHOREF
  2

  9
$PUCSORTHOVIEW
 70
     0
  9
$PUCSORGTOP
 10
0.0
 20
0.0
 30
0.0
  9
$PUCSORGBOTTOM
 10
0.0
 20
0.0
 30
0.0
  9
$PUCSORGLEFT
 10
0.0
 20
0.0
 30
0.0
  9
$PUCSORGRIGHT
 10
0.0
 20
0.0
 30
0.0
  9
$PUCSORGFRONT
 10
0.0
 20
0.0
 30
0.0
  9
$PUCSORGBACK
 10
0.0
 20
0.0
 30
0.0
  9
$USERI1
 70
     0
  9
$USERI2
 70
     0
  9
$USERI3
 70
     0
  9
$USERI4
 70
     0
  9
$USERI5
 70
     0
  9
$USERR1
 40
0.0
  9
$USERR2
 40
0.0
  9
$USERR3
 40
0.0
  9
$USERR4
 40
0.0
  9
$USERR5
 40
0.0
  9
$WORLDVIEW
 70
     1
  9
$SHADEDGE
 70
     3
  9
$SHADEDIF
 70
    70
  9
$TILEMODE
 70
     1
  9
$MAXACTVP
 70
    64
  9
$PINSBASE
 10
0.0
 20
0.0
 30
0.0
  9
$PLIMCHECK
 70
     0
  9
$PEXTMIN
 10
0.0
 20
0.0
 30
0.0
  9
$PEXTMAX
 10
0.0
 20
0.0
 30
0.0
  9
$PLIMMIN
 10
0.0
 20
0.0
  9
$PLIMMAX
 10
12.0
 20
9.0
  9
$UNITMODE
 70
     0
  9
$VISRETAIN
 70
     1
  9
$PLINEGEN
 70
     0
  9
$PSLTSCALE
 70
     1
  9
$TREEDEPTH
 70
  3020
  9
$CMLSTYLE
  2
Standard
  9
$CMLJUST
 70
     0
  9
$CMLSCALE
 40
20.0
  9
$PROXYGRAPHICS
 70
     1
  9
$MEASUREMENT
 70
     1
  9
$CELWEIGHT
370
    -1
  9
$ENDCAPS
280
     0
  9
$JOINSTYLE
280
     0
  9
$LWDISPLAY
290
     0
  9
$INSUNITS
 70
     4
  9
$HYPERLINKBASE
  1

  9
$STYLESHEET
  1

  9
$XEDIT
290
     1
  9
$CEPSNTYPE
380
     0
  9
$PSTYLEMODE
290
     1
  9
$FINGERPRINTGUID
  2
{68DDF760-C654-424F-A63F-706B0C5FA156}
  9
$VERSIONGUID
  2
{A824B313-3D5D-4FCA-9063-D31FF1CF0628}
  9
$EXTNAMES
290
     1
  9
$PSVPSCALE
 40
0.0
  9
$OLESTARTUP
290
     0
  9
$SORTENTS
280
   127
  9
$INDEXCTL
280
     0
  9
$HIDETEXT
280
     1
  9
$XCLIPFRAME
290
     0
  9
$HALOGAP
280
     0
  9
$OBSCOLOR
 70
   257
  9
$OBSLTYPE
280
     0
  9
$INTERSECTIONDISPLAY
280
     0
  9
$INTERSECTIONCOLOR
 70
   257
  9
$DIMASSOC
280
     2
  9
$PROJECTNAME
  1

  9
$CAMERADISPLAY
290
     0
  9
$LENSLENGTH
 40
50.0
  9
$CAMERAHEIGHT
 40
0.0
  9
$STEPSPERSEC
 40
2.0
  9
$STEPSIZE
 40
6.0
  9
$3DDWFPREC
 40
2.0
  9
$PSOLWIDTH
 40
5.0
  9
$PSOLHEIGHT
 40
80.0
  9
$LOFTANG1
 40
1.570796326794896
  9
$LOFTANG2
 40
1.570796326794896
  9
$LOFTMAG1
 40
0.0
  9
$LOFTMAG2
 40
0.0
  9
$LOFTPARAM
 70
     7
  9
$LOFTNORMALS
280
     1
  9
$LATITUDE
 40
37.795
  9
$LONGITUDE
 40
-122.394
  9
$NORTHDIRECTION
 40
0.0
  9
$TIMEZONE
 70
 -8000
  9
$LIGHTGLYPHDISPLAY
280
     1
  9
$TILEMODELIGHTSYNCH
280
     1
  9
$CMATERIAL
347
EC
  9
$SOLIDHIST
280
     1
  9
$SHOWHIST
280
     1
  9
$DWFFRAME
280
     2
  9
$DGNFRAME
280
     0
  9
$REALWORLDSCALE
290
     1
  9
$INTERFERECOLOR
 62
     1
  9
$INTERFEREOBJVS
345
F9
  9
$INTERFEREVPVS
346
F6
  9
$CSHADOW
280
     0
  9
$SHADOWPLANELOCATION
 40
0.0
  0
ENDSEC
  0
SECTION
  2
CLASSES
  0
CLASS
  1
ACDBDICTIONARYWDFLT
  2
AcDbDictionaryWithDefault
  3
ObjectDBX Classes
 90
        0
 91
        1
280
     0
281
     0
  0
CLASS
  1
DICTIONARYVAR
  2
AcDbDictionaryVar
  3
ObjectDBX Classes
 90
        0
 91
        3
280
     0
281
     0
  0
CLASS
  1
TABLESTYLE
  2
AcDbTableStyle
  3
ObjectDBX Classes
 90
     4095
 91
        1
280
     0
281
     0
  0
CLASS
  1
MATERIAL
  2
AcDbMaterial
  3
ObjectDBX Classes
 90
     1024
 91
        3
280
     0
281
     0
  0
CLASS
  1
VISUALSTYLE
  2
AcDbVisualStyle
  3
ObjectDBX Classes
 90
     4095
 91
       16
280
     0
281
     0
  0
CLASS
  1
DIMASSOC
  2
AcDbDimAssoc
  3
"AcDbDimAssoc|Product Desc:     AcDim ARX App For Dimension|Company:          Autodesk, Inc.|WEB Address:      www.autodesk.com"
 90
        0
 91
       30
280
     0
281
     0
  0
CLASS
  1
SORTENTSTABLE
  2
AcDbSortentsTable
  3
ObjectDBX Classes
 90
        0
 91
        1
280
     0
281
     0
  0
ENDSEC
  0
SECTION
  2
TABLES
  0
TABLE
  2
VPORT
  5
8
330
0
100
AcDbSymbolTable
 70
     1
  0
VPORT
  5
EA
330
8
100
AcDbSymbolTableRecord
100
AcDbViewportTableRecord
  2
*Active
 70
     0
 10
0.0
 20
0.0
 11
1.0
 21
1.0
 12
137.8080331301225
 22
281.8899070540204
 13
0.0
 23
0.0
 14
10.0
 24
10.0
 15
10.0
 25
10.0
 16
0.0
 26
0.0
 36
1.0
 17
0.0
 27
0.0
 37
0.0
 40
62.72500054159845
 41
2.22846889952153
 42
50.0
 43
0.0
 44
0.0
 50
0.0
 51
0.0
 71
     0
 72
  1000
 73
     1
 74
     3
 75
     0
 76
     1
 77
     0
 78
     0
281
     0
 65
     1
110
0.0
120
0.0
130
0.0
111
1.0
121
0.0
131
0.0
112
0.0
122
1.0
132
0.0
 79
     0
146
0.0
348
F5
 60
     2
 61
     5
292
     1
282
     1
141
0.0
142
0.0
 63
   250
421
  3355443
  0
ENDTAB
  0
TABLE
  2
LTYPE
  5
5
330
0
100
AcDbSymbolTable
 70
     2
  0
LTYPE
  5
14
330
5
100
AcDbSymbolTableRecord
100
AcDbLinetypeTableRecord
  2
ByBlock
 70
     0
  3

 72
    65
 73
     0
 40
0.0
  0
LTYPE
  5
15
330
5
100
AcDbSymbolTableRecord
100
AcDbLinetypeTableRecord
  2
ByLayer
 70
     0
  3

 72
    65
 73
     0
 40
0.0
  0
LTYPE
  5
16
330
5
100
AcDbSymbolTableRecord
100
AcDbLinetypeTableRecord
  2
Continuous
 70
     0
  3
Solid line
 72
    65
 73
     0
 40
0.0
  0
ENDTAB
  0
TABLE
  2
LAYER
  5
2
330
0
100
AcDbSymbolTable
 70
     2
  0
LAYER
  5
10
330
2
100
AcDbSymbolTableRecord
100
AcDbLayerTableRecord
  2
0
 70
     0
 62
     7
  6
Continuous
370
    -3
390
F
347
EE
  0
LAYER
  5
11E
330
2
100
AcDbSymbolTableRecord
100
AcDbLayerTableRecord
  2
Defpoints
 70
     0
 62
     7
  6
Continuous
290
     0
370
    -3
390
F
347
EE
  0
ENDTAB
  0
TABLE
  2
STYLE
  5
3
330
0
100
AcDbSymbolTable
 70
     1
  0
STYLE
  5
11
330
3
100
AcDbSymbolTableRecord
100
AcDbTextStyleTableRecord
  2
Standard
 70
     0
 40
0.0
 41
1.0
 50
0.0
 71
     0
 42
2.5
  3
txt
  4

  0
ENDTAB
  0
TABLE
  2
VIEW
  5
6
330
0
100
AcDbSymbolTable
 70
     0
  0
ENDTAB
  0
TABLE
  2
UCS
  5
7
330
0
100
AcDbSymbolTable
 70
     0
  0
ENDTAB
  0
TABLE
  2
APPID
  5
9
330
0
100
AcDbSymbolTable
 70
     3
  0
APPID
  5
12
330
9
100
AcDbSymbolTableRecord
100
AcDbRegAppTableRecord
  2
ACAD
 70
     0
  0
APPID
  5
9E
330
9
100
AcDbSymbolTableRecord
100
AcDbRegAppTableRecord
  2
ACAD_PSEXT
 70
     0
  0
APPID
  5
110
330
9
100
AcDbSymbolTableRecord
100
AcDbRegAppTableRecord
  2
ACAD_EXEMPT_FROM_CAD_STANDARDS
 70
     0
  0
ENDTAB
  0
TABLE
  2
DIMSTYLE
  5
A
330
0
100
AcDbSymbolTable
 70
     2
100
AcDbDimStyleTable
 71
     1
340
27
  0
DIMSTYLE
105
27
102
{ACAD_REACTORS
330
337
330
347
330
365
330
396
330
2BC
330
2D8
330
31B
330
4B8
330
4D0
102
}
330
A
100
AcDbSymbolTableRecord
100
AcDbDimStyleTableRecord
  2
ISO-25
 70
     0
 41
2.5
 42
0.625
 43
3.75
 44
1.25
 73
     0
 74
     0
 77
     1
 78
     8
140
2.5
141
2.5
143
0.03937007874016
147
0.625
171
     3
172
     1
271
     1
272
     1
274
     3
278
    44
283
     0
284
     8
340
11
  0
ENDTAB
  0
TABLE
  2
BLOCK_RECORD
  5
1
330
0
100
AcDbSymbolTable
 70
    29
  0
BLOCK_RECORD
  5
1F
102
{ACAD_XDICTIONARY
360
215
102
}
330
1
100
AcDbSymbolTableRecord
100
AcDbBlockTableRecord
  2
*Model_Space
340
22
 70
     0
280
     1
281
     0
  0
BLOCK_RECORD
  5
D2
330
1
100
AcDbSymbolTableRecord
100
AcDbBlockTableRecord
  2
*Paper_Space
340
D3
 70
     0
280
     1
281
     0
  0
BLOCK_RECORD
  5
D6
330
1
100
AcDbSymbolTableRecord
100
AcDbBlockTableRecord
  2
*Paper_Space0
340
D7
 70
     0
280
     1
281
     0
  0
BLOCK_RECORD
  5
11F
330
1
100
AcDbSymbolTableRecord
100
AcDbBlockTableRecord
  2
*D2
340
0
 70
     0
280
     1
281
     0
  0
BLOCK_RECORD
  5
14B
330
1
100
AcDbSymbolTableRecord
100
AcDbBlockTableRecord
  2
*D3
340
0
 70
     0
280
     1
281
     0
  0
BLOCK_RECORD
  5
15B
330
1
100
AcDbSymbolTableRecord
100
AcDbBlockTableRecord
  2
*D4
340
0
 70
     0
280
     1
281
     0
  0
BLOCK_RECORD
  5
173
330
1
100
AcDbSymbolTableRecord
100
AcDbBlockTableRecord
  2
*D5
340
0
 70
     0
280
     1
281
     0
  0
BLOCK_RECORD
  5
18F
330
1
100
AcDbSymbolTableRecord
100
AcDbBlockTableRecord
  2
*D6
340
0
 70
     0
280
     1
281
     0
  0
BLOCK_RECORD
  5
1A7
330
1
100
AcDbSymbolTableRecord
100
AcDbBlockTableRecord
  2
*D7
340
0
 70
     0
280
     1
281
     0
  0
BLOCK_RECORD
  5
1BF
330
1
100
AcDbSymbolTableRecord
100
AcDbBlockTableRecord
  2
*D8
340
0
 70
     0
280
     1
281
     0
  0
BLOCK_RECORD
  5
1DB
330
1
100
AcDbSymbolTableRecord
100
AcDbBlockTableRecord
  2
*D9
340
0
 70
     0
280
     1
281
     0
  0
BLOCK_RECORD
  5
1F7
330
1
100
AcDbSymbolTableRecord
100
AcDbBlockTableRecord
  2
*D10
340
0
 70
     0
280
     1
281
     0
  0
BLOCK_RECORD
  5
22D
330
1
100
AcDbSymbolTableRecord
100
AcDbBlockTableRecord
  2
*D11
340
0
 70
     0
280
     1
281
     0
  0
BLOCK_RECORD
  5
247
330
1
100
AcDbSymbolTableRecord
100
AcDbBlockTableRecord
  2
*D12
340
0
 70
     0
280
     1
281
     0
  0
BLOCK_RECORD
  5
280
330
1
100
AcDbSymbolTableRecord
100
AcDbBlockTableRecord
  2
*D13
340
0
 70
     0
280
     1
281
     0
  0
BLOCK_RECORD
  5
29C
330
1
100
AcDbSymbolTableRecord
100
AcDbBlockTableRecord
  2
*D14
340
0
 70
     0
280
     1
281
     0
  0
BLOCK_RECORD
  5
2BD
330
1
100
AcDbSymbolTableRecord
100
AcDbBlockTableRecord
  2
*D15
340
0
 70
     0
280
     1
281
     0
  0
BLOCK_RECORD
  5
2D9
330
1
100
AcDbSymbolTableRecord
100
AcDbBlockTableRecord
  2
*D16
340
0
 70
     0
280
     1
281
     0
  0
BLOCK_RECORD
  5
2F5
330
1
100
AcDbSymbolTableRecord
100
AcDbBlockTableRecord
  2
*D17
340
0
 70
     0
280
     1
281
     0
  0
BLOCK_RECORD
  5
31C
330
1
100
AcDbSymbolTableRecord
100
AcDbBlockTableRecord
  2
*D18
340
0
 70
     0
280
     1
281
     0
  0
BLOCK_RECORD
  5
338
330
1
100
AcDbSymbolTableRecord
100
AcDbBlockTableRecord
  2
*D19
340
0
 70
     0
280
     1
281
     0
  0
BLOCK_RECORD
  5
348
330
1
100
AcDbSymbolTableRecord
100
AcDbBlockTableRecord
  2
*D20
340
0
 70
     0
280
     1
281
     0
  0
BLOCK_RECORD
  5
366
330
1
100
AcDbSymbolTableRecord
100
AcDbBlockTableRecord
  2
*D21
340
0
 70
     0
280
     1
281
     0
  0
BLOCK_RECORD
  5
37E
330
1
100
AcDbSymbolTableRecord
100
AcDbBlockTableRecord
  2
*D22
340
0
 70
     0
280
     1
281
     0
  0
BLOCK_RECORD
  5
397
330
1
100
AcDbSymbolTableRecord
100
AcDbBlockTableRecord
  2
*D23
340
0
 70
     0
280
     1
281
     0
  0
BLOCK_RECORD
  5
3B3
330
1
100
AcDbSymbolTableRecord
100
AcDbBlockTableRecord
  2
*D24
340
0
 70
     0
280
     1
281
     0
  0
BLOCK_RECORD
  5
442
330
1
100
AcDbSymbolTableRecord
100
AcDbBlockTableRecord
  2
*D25
340
0
 70
     0
280
     1
281
     0
  0
BLOCK_RECORD
  5
45A
330
1
100
AcDbSymbolTableRecord
100
AcDbBlockTableRecord
  2
*D26
340
0
 70
     0
280
     1
281
     0
  0
BLOCK_RECORD
  5
4B9
330
1
100
AcDbSymbolTableRecord
100
AcDbBlockTableRecord
  2
*D27
340
0
 70
     0
280
     1
281
     0
  0
BLOCK_RECORD
  5
4D1
330
1
100
AcDbSymbolTableRecord
100
AcDbBlockTableRecord
  2
*D28
340
0
 70
     0
280
     1
281
     0
  0
ENDTAB
  0
ENDSEC
  0
SECTION
  2
BLOCKS
  0
BLOCK
  5
20
330
1F
100
AcDbEntity
  8
0
100
AcDbBlockBegin
  2
*Model_Space
 70
     0
 10
0.0
 20
0.0
 30
0.0
  3
*Model_Space
  1

  0
ENDBLK
  5
21
330
1F
100
AcDbEntity
  8
0
100
AcDbBlockEnd
  0
BLOCK
  5
D4
330
D2
100
AcDbEntity
 67
     1
  8
0
100
AcDbBlockBegin
  2
*Paper_Space
 70
     0
 10
0.0
 20
0.0
 30
0.0
  3
*Paper_Space
  1

  0
ENDBLK
  5
D5
330
D2
100
AcDbEntity
 67
     1
  8
0
100
AcDbBlockEnd
  0
BLOCK
  5
D8
330
D6
100
AcDbEntity
 67
     1
  8
0
100
AcDbBlockBegin
  2
*Paper_Space0
 70
     0
 10
0.0
 20
0.0
 30
0.0
  3
*Paper_Space0
  1

  0
ENDBLK
  5
D9
330
D6
100
AcDbEntity
 67
     1
  8
0
100
AcDbBlockEnd
  0
BLOCK
  5
129
330
11F
100
AcDbEntity
  8
0
100
AcDbBlockBegin
  2
*D2
 70
     1
 10
0.0
 20
0.0
 30
0.0
  3
*D2
  1

  0
LINE
  5
12C
330
11F
100
AcDbEntity
  8
0
 62
     0
370
    -2
100
AcDbLine
 10
138.8926811709857
 20
274.519728006126
 30
0.0
 11
156.1030776358152
 21
274.519728006126
 31
0.0
  0
LINE
  5
12D
330
11F
100
AcDbEntity
  8
0
 62
     0
370
    -2
100
AcDbLine
 10
138.8926811709857
 20
252.519728006126
 30
0.0
 11
156.1030776358152
 21
252.519728006126
 31
0.0
  0
LINE
  5
12E
330
11F
100
AcDbEntity
  8
0
 62
     0
370
    -2
100
AcDbLine
 10
154.8530776358152
 20
272.019728006126
 30
0.0
 11
154.8530776358152
 21
255.019728006126
 31
0.0
  0
SOLID
  5
12F
330
11F
100
AcDbEntity
  8
0
 62
     0
100
AcDbTrace
 10
154.4364109691485
 20
272.019728006126
 30
0.0
 11
155.2697443024819
 21
272.019728006126
 31
0.0
 12
154.8530776358152
 22
274.519728006126
 32
0.0
 13
154.8530776358152
 23
274.519728006126
 33
0.0
  0
SOLID
  5
130
330
11F
100
AcDbEntity
  8
0
 62
     0
100
AcDbTrace
 10
154.4364109691485
 20
255.019728006126
 30
0.0
 11
155.2697443024819
 21
255.019728006126
 31
0.0
 12
154.8530776358152
 22
252.519728006126
 32
0.0
 13
154.8530776358152
 23
252.519728006126
 33
0.0
  0
MTEXT
  5
131
330
11F
100
AcDbEntity
  8
0
 62
     0
100
AcDbMText
 10
152.9780776358152
 20
263.5197280061261
 30
0.0
 40
2.5
 41
0.0
 46
0.0
 71
     5
 72
     1
  1
22
 11
0.0000000000000001
 21
1.0
 31
0.0
 73
     1
 44
1.0
  0
POINT
  5
132
330
11F
100
AcDbEntity
  8
Defpoints
 62
     0
100
AcDbPoint
 10
138.2676811709857
 20
274.519728006126
 30
0.0
  0
POINT
  5
133
330
11F
100
AcDbEntity
  8
Defpoints
 62
     0
100
AcDbPoint
 10
138.2676811709857
 20
252.519728006126
 30
0.0
  0
POINT
  5
134
330
11F
100
AcDbEntity
  8
Defpoints
 62
     0
100
AcDbPoint
 10
154.8530776358152
 20
252.519728006126
 30
0.0
  0
ENDBLK
  5
12A
330
11F
100
AcDbEntity
  8
0
100
AcDbBlockEnd
  0
BLOCK
  5
151
330
14B
100
AcDbEntity
  8
0
100
AcDbBlockBegin
  2
*D3
 70
     1
 10
0.0
 20
0.0
 30
0.0
  3
*D3
  1

  0
LINE
  5
154
330
14B
100
AcDbEntity
  8
0
 62
     0
370
    -2
100
AcDbLine
 10
135.7397841001056
 20
263.5594158170221
 30
0.0
 11
142.5004390571105
 21
256.767227485556
 31
0.0
  0
MTEXT
  5
155
330
14B
100
AcDbEntity
  8
0
 62
     0
100
AcDbMText
 10
139.5671934316768
 20
262.3719960991552
 30
0.0
 40
2.5
 41
0.0
 46
0.0
 71
     5
 72
     1
  1
\U+220517
 11
0.7054596476874668
 21
-0.7087500867616705
 31
0.0
 73
     1
 44
1.0
  0
SOLID
  5
156
330
14B
100
AcDbEntity
  8
0
 62
     0
100
AcDbTrace
 10
142.7957515932612
 20
257.0611690054258
 30
0.0
 11
142.2051265209598
 21
256.4732859656862
 31
0.0
 12
144.2640881763292
 22
254.9953522686518
 32
0.0
 13
144.2640881763292
 23
254.9953522686518
 33
0.0
  0
POINT
  5
157
330
14B
100
AcDbEntity
  8
Defpoints
 62
     0
100
AcDbPoint
 10
144.2640881763292
 20
254.9953522686518
 30
0.0
  0
POINT
  5
158
330
14B
100
AcDbEntity
  8
Defpoints
 62
     0
100
AcDbPoint
 10
132.2712741656423
 20
267.0441037436002
 30
0.0
  0
ENDBLK
  5
152
330
14B
100
AcDbEntity
  8
0
100
AcDbBlockEnd
  0
BLOCK
  5
165
330
15B
100
AcDbEntity
  8
0
100
AcDbBlockBegin
  2
*D4
 70
     1
 10
0.0
 20
0.0
 30
0.0
  3
*D4
  1

  0
LINE
  5
168
330
15B
100
AcDbEntity
  8
0
 62
     0
370
    -2
100
AcDbLine
 10
138.8926811709857
 20
277.519728006126
 30
0.0
 11
158.3171949835505
 21
277.519728006126
 31
0.0
  0
LINE
  5
169
330
15B
100
AcDbEntity
  8
0
 62
     0
370
    -2
100
AcDbLine
 10
138.8926811709857
 20
252.519728006126
 30
0.0
 11
158.3171949835505
 21
252.519728006126
 31
0.0
  0
LINE
  5
16A
330
15B
100
AcDbEntity
  8
0
 62
     0
370
    -2
100
AcDbLine
 10
157.0671949835505
 20
275.019728006126
 30
0.0
 11
157.0671949835505
 21
255.019728006126
 31
0.0
  0
SOLID
  5
16B
330
15B
100
AcDbEntity
  8
0
 62
     0
100
AcDbTrace
 10
156.6505283168838
 20
275.019728006126
 30
0.0
 11
157.4838616502171
 21
275.019728006126
 31
0.0
 12
157.0671949835505
 22
277.519728006126
 32
0.0
 13
157.0671949835505
 23
277.519728006126
 33
0.0
  0
SOLID
  5
16C
330
15B
100
AcDbEntity
  8
0
 62
     0
100
AcDbTrace
 10
156.6505283168838
 20
255.019728006126
 30
0.0
 11
157.4838616502171
 21
255.019728006126
 31
0.0
 12
157.0671949835505
 22
252.519728006126
 32
0.0
 13
157.0671949835505
 23
252.519728006126
 33
0.0
  0
MTEXT
  5
16D
330
15B
100
AcDbEntity
  8
0
 62
     0
100
AcDbMText
 10
155.1921949835505
 20
265.019728006126
 30
0.0
 40
2.5
 41
0.0
 46
0.0
 71
     5
 72
     1
  1
25
 11
0.0000000000000001
 21
1.0
 31
0.0
 73
     1
 44
1.0
  0
POINT
  5
16E
330
15B
100
AcDbEntity
  8
Defpoints
 62
     0
100
AcDbPoint
 10
138.2676811709857
 20
277.519728006126
 30
0.0
  0
POINT
  5
16F
330
15B
100
AcDbEntity
  8
Defpoints
 62
     0
100
AcDbPoint
 10
138.2676811709857
 20
252.519728006126
 30
0.0
  0
POINT
  5
170
330
15B
100
AcDbEntity
  8
Defpoints
 62
     0
100
AcDbPoint
 10
157.0671949835505
 20
252.519728006126
 30
0.0
  0
ENDBLK
  5
166
330
15B
100
AcDbEntity
  8
0
100
AcDbBlockEnd
  0
BLOCK
  5
17F
330
173
100
AcDbEntity
  8
0
100
AcDbBlockBegin
  2
*D5
 70
     1
 10
0.0
 20
0.0
 30
0.0
  3
*D5
  1

  0
LINE
  5
182
330
173
100
AcDbEntity
  8
0
 62
     0
370
    -2
100
AcDbLine
 10
146.3926811709857
 20
272.519728006126
 30
0.0
 11
154.0354590323995
 21
272.519728006126
 31
0.0
  0
LINE
  5
183
330
173
100
AcDbEntity
  8
0
 62
     0
370
    -2
100
AcDbLine
 10
146.3926811709857
 20
277.519728006126
 30
0.0
 11
154.0354590323995
 21
277.519728006126
 31
0.0
  0
LINE
  5
184
330
173
100
AcDbEntity
  8
0
 62
     0
370
    -2
100
AcDbLine
 10
152.7854590323995
 20
270.019728006126
 30
0.0
 11
152.7854590323995
 21
267.519728006126
 31
0.0
  0
LINE
  5
185
330
173
100
AcDbEntity
  8
0
 62
     0
370
    -2
100
AcDbLine
 10
152.7854590323995
 20
280.019728006126
 30
0.0
 11
152.7854590323995
 21
282.519728006126
 31
0.0
  0
LINE
  5
186
330
173
100
AcDbEntity
  8
0
 62
     0
370
    -2
100
AcDbLine
 10
152.7854590323995
 20
272.519728006126
 30
0.0
 11
152.7854590323995
 21
277.519728006126
 31
0.0
  0
SOLID
  5
187
330
173
100
AcDbEntity
  8
0
 62
     0
100
AcDbTrace
 10
152.3687923657329
 20
270.019728006126
 30
0.0
 11
153.2021256990662
 21
270.019728006126
 31
0.0
 12
152.7854590323995
 22
272.519728006126
 32
0.0
 13
152.7854590323995
 23
272.519728006126
 33
0.0
  0
SOLID
  5
188
330
173
100
AcDbEntity
  8
0
 62
     0
100
AcDbTrace
 10
152.3687923657329
 20
280.019728006126
 30
0.0
 11
153.2021256990662
 21
280.019728006126
 31
0.0
 12
152.7854590323995
 22
277.519728006126
 32
0.0
 13
152.7854590323995
 23
277.519728006126
 33
0.0
  0
MTEXT
  5
189
330
173
100
AcDbEntity
  8
0
 62
     0
100
AcDbMText
 10
150.9104590323995
 20
275.0197280061261
 30
0.0
 40
2.5
 41
0.0
 46
0.0
 71
     5
 72
     1
  1
5
 11
0.0000000000000001
 21
1.0
 31
0.0
 73
     1
 44
1.0
  0
POINT
  5
18A
330
173
100
AcDbEntity
  8
Defpoints
 62
     0
100
AcDbPoint
 10
145.7676811709857
 20
272.519728006126
 30
0.0
  0
POINT
  5
18B
330
173
100
AcDbEntity
  8
Defpoints
 62
     0
100
AcDbPoint
 10
145.7676811709857
 20
277.519728006126
 30
0.0
  0
POINT
  5
18C
330
173
100
AcDbEntity
  8
Defpoints
 62
     0
100
AcDbPoint
 10
152.7854590323995
 20
277.519728006126
 30
0.0
  0
ENDBLK
  5
180
330
173
100
AcDbEntity
  8
0
100
AcDbBlockEnd
  0
BLOCK
  5
199
330
18F
100
AcDbEntity
  8
0
100
AcDbBlockBegin
  2
*D6
 70
     1
 10
0.0
 20
0.0
 30
0.0
  3
*D6
  1

  0
LINE
  5
19C
330
18F
100
AcDbEntity
  8
0
 62
     0
370
    -2
100
AcDbLine
 10
146.3926811709857
 20
277.519728006126
 30
0.0
 11
154.0367550190085
 21
277.519728006126
 31
0.0
  0
LINE
  5
19D
330
18F
100
AcDbEntity
  8
0
 62
     0
370
    -2
100
AcDbLine
 10
146.3926811709857
 20
297.519728006126
 30
0.0
 11
154.0367550190085
 21
297.519728006126
 31
0.0
  0
LINE
  5
19E
330
18F
100
AcDbEntity
  8
0
 62
     0
370
    -2
100
AcDbLine
 10
152.7867550190085
 20
280.019728006126
 30
0.0
 11
152.7867550190085
 21
295.019728006126
 31
0.0
  0
SOLID
  5
19F
330
18F
100
AcDbEntity
  8
0
 62
     0
100
AcDbTrace
 10
152.3700883523418
 20
280.019728006126
 30
0.0
 11
153.2034216856752
 21
280.019728006126
 31
0.0
 12
152.7867550190085
 22
277.519728006126
 32
0.0
 13
152.7867550190085
 23
277.519728006126
 33
0.0
  0
SOLID
  5
1A0
330
18F
100
AcDbEntity
  8
0
 62
     0
100
AcDbTrace
 10
152.3700883523418
 20
295.019728006126
 30
0.0
 11
153.2034216856752
 21
295.019728006126
 31
0.0
 12
152.7867550190085
 22
297.519728006126
 32
0.0
 13
152.7867550190085
 23
297.519728006126
 33
0.0
  0
MTEXT
  5
1A1
330
18F
100
AcDbEntity
  8
0
 62
     0
100
AcDbMText
 10
150.9117550190085
 20
287.519728006126
 30
0.0
 40
2.5
 41
0.0
 46
0.0
 71
     5
 72
     1
  1
20
 11
0.0000000000000001
 21
1.0
 31
0.0
 73
     1
 44
1.0
  0
POINT
  5
1A2
330
18F
100
AcDbEntity
  8
Defpoints
 62
     0
100
AcDbPoint
 10
145.7676811709857
 20
277.519728006126
 30
0.0
  0
POINT
  5
1A3
330
18F
100
AcDbEntity
  8
Defpoints
 62
     0
100
AcDbPoint
 10
145.7676811709857
 20
297.519728006126
 30
0.0
  0
POINT
  5
1A4
330
18F
100
AcDbEntity
  8
Defpoints
 62
     0
100
AcDbPoint
 10
152.7867550190085
 20
297.519728006126
 30
0.0
  0
ENDBLK
  5
19A
330
18F
100
AcDbEntity
  8
0
100
AcDbBlockEnd
  0
BLOCK
  5
1B1
330
1A7
100
AcDbEntity
  8
0
100
AcDbBlockBegin
  2
*D7
 70
     1
 10
0.0
 20
0.0
 30
0.0
  3
*D7
  1

  0
LINE
  5
1B4
330
1A7
100
AcDbEntity
  8
0
 62
     0
370
    -2
100
AcDbLine
 10
130.7676811709857
 20
296.8947280061259
 30
0.0
 11
130.7676811709857
 21
273.769728006126
 31
0.0
  0
LINE
  5
1B5
330
1A7
100
AcDbEntity
  8
0
 62
     0
370
    -2
100
AcDbLine
 10
145.7676811709857
 20
296.8947280061259
 30
0.0
 11
145.7676811709857
 21
273.769728006126
 31
0.0
  0
LINE
  5
1B6
330
1A7
100
AcDbEntity
  8
0
 62
     0
370
    -2
100
AcDbLine
 10
133.2676811709857
 20
275.019728006126
 30
0.0
 11
143.2676811709857
 21
275.019728006126
 31
0.0
  0
SOLID
  5
1B7
330
1A7
100
AcDbEntity
  8
0
 62
     0
100
AcDbTrace
 10
133.2676811709857
 20
275.4363946727927
 30
0.0
 11
133.2676811709857
 21
274.6030613394593
 31
0.0
 12
130.7676811709857
 22
275.019728006126
 32
0.0
 13
130.7676811709857
 23
275.019728006126
 33
0.0
  0
SOLID
  5
1B8
330
1A7
100
AcDbEntity
  8
0
 62
     0
100
AcDbTrace
 10
143.2676811709857
 20
275.4363946727927
 30
0.0
 11
143.2676811709857
 21
274.6030613394593
 31
0.0
 12
145.7676811709857
 22
275.019728006126
 32
0.0
 13
145.7676811709857
 23
275.019728006126
 33
0.0
  0
MTEXT
  5
1B9
330
1A7
100
AcDbEntity
  8
0
 62
     0
100
AcDbMText
 10
138.2676811709857
 20
276.894728006126
 30
0.0
 40
2.5
 41
0.0
 46
0.0
 71
     5
 72
     1
  1
15
 73
     1
 44
1.0
  0
POINT
  5
1BA
330
1A7
100
AcDbEntity
  8
Defpoints
 62
     0
100
AcDbPoint
 10
130.7676811709857
 20
297.519728006126
 30
0.0
  0
POINT
  5
1BB
330
1A7
100
AcDbEntity
  8
Defpoints
 62
     0
100
AcDbPoint
 10
145.7676811709857
 20
297.519728006126
 30
0.0
  0
POINT
  5
1BC
330
1A7
100
AcDbEntity
  8
Defpoints
 62
     0
100
AcDbPoint
 10
145.7676811709857
 20
275.019728006126
 30
0.0
  0
ENDBLK
  5
1B2
330
1A7
100
AcDbEntity
  8
0
100
AcDbBlockEnd
  0
BLOCK
  5
1CB
330
1BF
100
AcDbEntity
  8
0
100
AcDbBlockBegin
  2
*D8
 70
     1
 10
0.0
 20
0.0
 30
0.0
  3
*D8
  1

  0
LINE
  5
1CE
330
1BF
100
AcDbEntity
  8
0
 62
     0
370
    -2
100
AcDbLine
 10
130.7676811709857
 20
298.144728006126
 30
0.0
 11
130.7676811709857
 21
300.2793532960581
 31
0.0
  0
LINE
  5
1CF
330
1BF
100
AcDbEntity
  8
0
 62
     0
370
    -2
100
AcDbLine
 10
134.7676811709857
 20
298.144728006126
 30
0.0
 11
134.7676811709857
 21
300.2793532960581
 31
0.0
  0
LINE
  5
1D0
330
1BF
100
AcDbEntity
  8
0
 62
     0
370
    -2
100
AcDbLine
 10
128.2676811709857
 20
299.029353296058
 30
0.0
 11
125.7676811709857
 21
299.029353296058
 31
0.0
  0
LINE
  5
1D1
330
1BF
100
AcDbEntity
  8
0
 62
     0
370
    -2
100
AcDbLine
 10
137.2676811709857
 20
299.029353296058
 30
0.0
 11
139.7676811709857
 21
299.029353296058
 31
0.0
  0
LINE
  5
1D2
330
1BF
100
AcDbEntity
  8
0
 62
     0
370
    -2
100
AcDbLine
 10
130.7676811709857
 20
299.029353296058
 30
0.0
 11
134.7676811709857
 21
299.029353296058
 31
0.0
  0
SOLID
  5
1D3
330
1BF
100
AcDbEntity
  8
0
 62
     0
100
AcDbTrace
 10
128.2676811709857
 20
299.4460199627247
 30
0.0
 11
128.2676811709857
 21
298.6126866293913
 31
0.0
 12
130.7676811709857
 22
299.029353296058
 32
0.0
 13
130.7676811709857
 23
299.029353296058
 33
0.0
  0
SOLID
  5
1D4
330
1BF
100
AcDbEntity
  8
0
 62
     0
100
AcDbTrace
 10
137.2676811709857
 20
299.4460199627247
 30
0.0
 11
137.2676811709857
 21
298.6126866293913
 31
0.0
 12
134.7676811709857
 22
299.029353296058
 32
0.0
 13
134.7676811709857
 23
299.029353296058
 33
0.0
  0
MTEXT
  5
1D5
330
1BF
100
AcDbEntity
  8
0
 62
     0
100
AcDbMText
 10
132.7676811709857
 20
300.9043532960581
 30
0.0
 40
2.5
 41
0.0
 46
0.0
 71
     5
 72
     1
  1
4
 73
     1
 44
1.0
  0
POINT
  5
1D6
330
1BF
100
AcDbEntity
  8
Defpoints
 62
     0
100
AcDbPoint
 10
130.7676811709857
 20
297.519728006126
 30
0.0
  0
POINT
  5
1D7
330
1BF
100
AcDbEntity
  8
Defpoints
 62
     0
100
AcDbPoint
 10
134.7676811709857
 20
297.519728006126
 30
0.0
  0
POINT
  5
1D8
330
1BF
100
AcDbEntity
  8
Defpoints
 62
     0
100
AcDbPoint
 10
134.7676811709857
 20
299.029353296058
 30
0.0
  0
ENDBLK
  5
1CC
330
1BF
100
AcDbEntity
  8
0
100
AcDbBlockEnd
  0
BLOCK
  5
1E7
330
1DB
100
AcDbEntity
  8
0
100
AcDbBlockBegin
  2
*D9
 70
     1
 10
0.0
 20
0.0
 30
0.0
  3
*D9
  1

  0
LINE
  5
1EA
330
1DB
100
AcDbEntity
  8
0
 62
     0
370
    -2
100
AcDbLine
 10
136.2676811709857
 20
298.144728006126
 30
0.0
 11
136.2676811709857
 21
300.2793532960581
 31
0.0
  0
LINE
  5
1EB
330
1DB
100
AcDbEntity
  8
0
 62
     0
370
    -2
100
AcDbLine
 10
140.2676811709857
 20
298.144728006126
 30
0.0
 11
140.2676811709857
 21
300.2793532960581
 31
0.0
  0
LINE
  5
1EC
330
1DB
100
AcDbEntity
  8
0
 62
     0
370
    -2
100
AcDbLine
 10
133.7676811709857
 20
299.0293532960581
 30
0.0
 11
131.2676811709857
 21
299.0293532960581
 31
0.0
  0
LINE
  5
1ED
330
1DB
100
AcDbEntity
  8
0
 62
     0
370
    -2
100
AcDbLine
 10
142.7676811709857
 20
299.0293532960581
 30
0.0
 11
145.2676811709857
 21
299.0293532960581
 31
0.0
  0
LINE
  5
1EE
330
1DB
100
AcDbEntity
  8
0
 62
     0
370
    -2
100
AcDbLine
 10
136.2676811709857
 20
299.0293532960581
 30
0.0
 11
140.2676811709857
 21
299.0293532960581
 31
0.0
  0
SOLID
  5
1EF
330
1DB
100
AcDbEntity
  8
0
 62
     0
100
AcDbTrace
 10
133.7676811709857
 20
299.4460199627248
 30
0.0
 11
133.7676811709857
 21
298.6126866293914
 31
0.0
 12
136.2676811709857
 22
299.0293532960581
 32
0.0
 13
136.2676811709857
 23
299.0293532960581
 33
0.0
  0
SOLID
  5
1F0
330
1DB
100
AcDbEntity
  8
0
 62
     0
100
AcDbTrace
 10
142.7676811709857
 20
299.4460199627248
 30
0.0
 11
142.7676811709857
 21
298.6126866293914
 31
0.0
 12
140.2676811709857
 22
299.0293532960581
 32
0.0
 13
140.2676811709857
 23
299.0293532960581
 33
0.0
  0
MTEXT
  5
1F1
330
1DB
100
AcDbEntity
  8
0
 62
     0
100
AcDbMText
 10
138.2676811709857
 20
300.9043532960581
 30
0.0
 40
2.5
 41
0.0
 46
0.0
 71
     5
 72
     1
  1
4
 73
     1
 44
1.0
  0
POINT
  5
1F2
330
1DB
100
AcDbEntity
  8
Defpoints
 62
     0
100
AcDbPoint
 10
136.2676811709857
 20
297.519728006126
 30
0.0
  0
POINT
  5
1F3
330
1DB
100
AcDbEntity
  8
Defpoints
 62
     0
100
AcDbPoint
 10
140.2676811709857
 20
297.519728006126
 30
0.0
  0
POINT
  5
1F4
330
1DB
100
AcDbEntity
  8
Defpoints
 62
     0
100
AcDbPoint
 10
140.2676811709857
 20
299.0293532960581
 30
0.0
  0
ENDBLK
  5
1E8
330
1DB
100
AcDbEntity
  8
0
100
AcDbBlockEnd
  0
BLOCK
  5
203
330
1F7
100
AcDbEntity
  8
0
100
AcDbBlockBegin
  2
*D10
 70
     1
 10
0.0
 20
0.0
 30
0.0
  3
*D10
  1

  0
LINE
  5
206
330
1F7
100
AcDbEntity
  8
0
 62
     0
370
    -2
100
AcDbLine
 10
141.7676811709857
 20
298.144728006126
 30
0.0
 11
141.7676811709857
 21
300.2793532960581
 31
0.0
  0
LINE
  5
207
330
1F7
100
AcDbEntity
  8
0
 62
     0
370
    -2
100
AcDbLine
 10
145.7676811709857
 20
298.144728006126
 30
0.0
 11
145.7676811709857
 21
300.2793532960581
 31
0.0
  0
LINE
  5
208
330
1F7
100
AcDbEntity
  8
0
 62
     0
370
    -2
100
AcDbLine
 10
139.2676811709857
 20
299.0293532960581
 30
0.0
 11
136.7676811709857
 21
299.0293532960581
 31
0.0
  0
LINE
  5
209
330
1F7
100
AcDbEntity
  8
0
 62
     0
370
    -2
100
AcDbLine
 10
148.2676811709857
 20
299.0293532960581
 30
0.0
 11
150.7676811709857
 21
299.0293532960581
 31
0.0
  0
LINE
  5
20A
330
1F7
100
AcDbEntity
  8
0
 62
     0
370
    -2
100
AcDbLine
 10
141.7676811709857
 20
299.0293532960581
 30
0.0
 11
145.7676811709857
 21
299.0293532960581
 31
0.0
  0
SOLID
  5
20B
330
1F7
100
AcDbEntity
  8
0
 62
     0
100
AcDbTrace
 10
139.2676811709857
 20
299.4460199627248
 30
0.0
 11
139.2676811709857
 21
298.6126866293914
 31
0.0
 12
141.7676811709857
 22
299.0293532960581
 32
0.0
 13
141.7676811709857
 23
299.0293532960581
 33
0.0
  0
SOLID
  5
20C
330
1F7
100
AcDbEntity
  8
0
 62
     0
100
AcDbTrace
 10
148.2676811709857
 20
299.4460199627248
 30
0.0
 11
148.2676811709857
 21
298.6126866293914
 31
0.0
 12
145.7676811709857
 22
299.0293532960581
 32
0.0
 13
145.7676811709857
 23
299.0293532960581
 33
0.0
  0
MTEXT
  5
20D
330
1F7
100
AcDbEntity
  8
0
 62
     0
100
AcDbMText
 10
143.7676811709857
 20
300.9043532960581
 30
0.0
 40
2.5
 41
0.0
 46
0.0
 71
     5
 72
     1
  1
4
 73
     1
 44
1.0
  0
POINT
  5
20E
330
1F7
100
AcDbEntity
  8
Defpoints
 62
     0
100
AcDbPoint
 10
141.7676811709857
 20
297.519728006126
 30
0.0
  0
POINT
  5
20F
330
1F7
100
AcDbEntity
  8
Defpoints
 62
     0
100
AcDbPoint
 10
145.7676811709857
 20
297.519728006126
 30
0.0
  0
POINT
  5
210
330
1F7
100
AcDbEntity
  8
Defpoints
 62
     0
100
AcDbPoint
 10
145.7676811709857
 20
299.0293532960581
 30
0.0
  0
ENDBLK
  5
204
330
1F7
100
AcDbEntity
  8
0
100
AcDbBlockEnd
  0
BLOCK
  5
237
330
22D
100
AcDbEntity
  8
0
100
AcDbBlockBegin
  2
*D11
 70
     1
 10
0.0
 20
0.0
 30
0.0
  3
*D11
  1

  0
LINE
  5
23A
330
22D
100
AcDbEntity
  8
0
 62
     0
370
    -2
100
AcDbLine
 10
130.1426811709857
 20
279.019728006126
 30
0.0
 11
113.6885060335539
 21
279.019728006126
 31
0.0
  0
LINE
  5
23B
330
22D
100
AcDbEntity
  8
0
 62
     0
370
    -2
100
AcDbLine
 10
130.1426811709857
 20
302.019728006126
 30
0.0
 11
113.6885060335539
 21
302.0197280061261
 31
0.0
  0
LINE
  5
23C
330
22D
100
AcDbEntity
  8
0
 62
     0
370
    -2
100
AcDbLine
 10
114.9385060335539
 20
281.5197280061261
 30
0.0
 11
114.9385060335539
 21
299.519728006126
 31
0.0
  0
SOLID
  5
23D
330
22D
100
AcDbEntity
  8
0
 62
     0
100
AcDbTrace
 10
114.5218393668872
 20
281.5197280061261
 30
0.0
 11
115.3551727002206
 21
281.5197280061261
 31
0.0
 12
114.9385060335539
 22
279.019728006126
 32
0.0
 13
114.9385060335539
 23
279.019728006126
 33
0.0
  0
SOLID
  5
23E
330
22D
100
AcDbEntity
  8
0
 62
     0
100
AcDbTrace
 10
114.5218393668873
 20
299.519728006126
 30
0.0
 11
115.3551727002206
 21
299.519728006126
 31
0.0
 12
114.9385060335539
 22
302.0197280061261
 32
0.0
 13
114.9385060335539
 23
302.0197280061261
 33
0.0
  0
MTEXT
  5
23F
330
22D
100
AcDbEntity
  8
0
 62
     0
100
AcDbMText
 10
113.0635060335539
 20
290.5197280061261
 30
0.0
 40
2.5
 41
0.0
 46
0.0
 71
     5
 72
     1
  1
23
 11
0.0000000000000001
 21
1.0
 31
0.0
 73
     1
 44
1.0
  0
POINT
  5
240
330
22D
100
AcDbEntity
  8
Defpoints
 62
     0
100
AcDbPoint
 10
130.7676811709857
 20
279.019728006126
 30
0.0
  0
POINT
  5
241
330
22D
100
AcDbEntity
  8
Defpoints
 62
     0
100
AcDbPoint
 10
130.7676811709857
 20
302.019728006126
 30
0.0
  0
POINT
  5
242
330
22D
100
AcDbEntity
  8
Defpoints
 62
     0
100
AcDbPoint
 10
114.9385060335539
 20
302.0197280061261
 30
0.0
  0
ENDBLK
  5
238
330
22D
100
AcDbEntity
  8
0
100
AcDbBlockEnd
  0
BLOCK
  5
251
330
247
100
AcDbEntity
  8
0
100
AcDbBlockBegin
  2
*D12
 70
     1
 10
0.0
 20
0.0
 30
0.0
  3
*D12
  1

  0
LINE
  5
254
330
247
100
AcDbEntity
  8
0
 62
     0
370
    -2
100
AcDbLine
 10
130.1426811709857
 20
299.019728006126
 30
0.0
 11
118.8054609351848
 21
299.0197280061261
 31
0.0
  0
LINE
  5
255
330
247
100
AcDbEntity
  8
0
 62
     0
370
    -2
100
AcDbLine
 10
130.1426811709857
 20
279.019728006126
 30
0.0
 11
118.8054609351848
 21
279.019728006126
 31
0.0
  0
LINE
  5
256
330
247
100
AcDbEntity
  8
0
 62
     0
370
    -2
100
AcDbLine
 10
120.0554609351848
 20
296.5197280061261
 30
0.0
 11
120.0554609351847
 21
281.5197280061261
 31
0.0
  0
SOLID
  5
257
330
247
100
AcDbEntity
  8
0
 62
     0
100
AcDbTrace
 10
119.6387942685181
 20
296.5197280061261
 30
0.0
 11
120.4721276018514
 21
296.5197280061261
 31
0.0
 12
120.0554609351848
 22
299.0197280061261
 32
0.0
 13
120.0554609351848
 23
299.0197280061261
 33
0.0
  0
SOLID
  5
258
330
247
100
AcDbEntity
  8
0
 62
     0
100
AcDbTrace
 10
119.6387942685181
 20
281.5197280061261
 30
0.0
 11
120.4721276018514
 21
281.5197280061261
 31
0.0
 12
120.0554609351847
 22
279.019728006126
 32
0.0
 13
120.0554609351847
 23
279.019728006126
 33
0.0
  0
MTEXT
  5
259
330
247
100
AcDbEntity
  8
0
 62
     0
100
AcDbMText
 10
118.1804609351847
 20
289.019728006126
 30
0.0
 40
2.5
 41
0.0
 46
0.0
 71
     5
 72
     1
  1
20
 11
0.0000000000000001
 21
1.0
 31
0.0
 73
     1
 44
1.0
  0
POINT
  5
25A
330
247
100
AcDbEntity
  8
Defpoints
 62
     0
100
AcDbPoint
 10
130.7676811709857
 20
299.019728006126
 30
0.0
  0
POINT
  5
25B
330
247
100
AcDbEntity
  8
Defpoints
 62
     0
100
AcDbPoint
 10
130.7676811709857
 20
279.019728006126
 30
0.0
  0
POINT
  5
25C
330
247
100
AcDbEntity
  8
Defpoints
 62
     0
100
AcDbPoint
 10
120.0554609351847
 20
279.019728006126
 30
0.0
  0
ENDBLK
  5
252
330
247
100
AcDbEntity
  8
0
100
AcDbBlockEnd
  0
BLOCK
  5
28C
330
280
100
AcDbEntity
  8
0
100
AcDbBlockBegin
  2
*D13
 70
     1
 10
0.0
 20
0.0
 30
0.0
  3
*D13
  1

  0
LINE
  5
28F
330
280
100
AcDbEntity
  8
0
 62
     0
370
    -2
100
AcDbLine
 10
146.7676811709857
 20
267.4197123270789
 30
0.0
 11
146.7676811709857
 21
266.535600732342
 31
0.0
  0
LINE
  5
290
330
280
100
AcDbEntity
  8
0
 62
     0
370
    -2
100
AcDbLine
 10
148.2676811709857
 20
267.4197123270789
 30
0.0
 11
148.2676811709857
 21
266.535600732342
 31
0.0
  0
LINE
  5
291
330
280
100
AcDbEntity
  8
0
 62
     0
370
    -2
100
AcDbLine
 10
144.2676811709857
 20
267.785600732342
 30
0.0
 11
141.7676811709857
 21
267.785600732342
 31
0.0
  0
LINE
  5
292
330
280
100
AcDbEntity
  8
0
 62
     0
370
    -2
100
AcDbLine
 10
150.7676811709857
 20
267.785600732342
 30
0.0
 11
159.101014504319
 21
267.785600732342
 31
0.0
  0
LINE
  5
293
330
280
100
AcDbEntity
  8
0
 62
     0
370
    -2
100
AcDbLine
 10
146.7676811709857
 20
267.785600732342
 30
0.0
 11
148.2676811709857
 21
267.785600732342
 31
0.0
  0
SOLID
  5
294
330
280
100
AcDbEntity
  8
0
 62
     0
100
AcDbTrace
 10
144.2676811709857
 20
268.2022673990087
 30
0.0
 11
144.2676811709857
 21
267.3689340656753
 31
0.0
 12
146.7676811709857
 22
267.785600732342
 32
0.0
 13
146.7676811709857
 23
267.785600732342
 33
0.0
  0
SOLID
  5
295
330
280
100
AcDbEntity
  8
0
 62
     0
100
AcDbTrace
 10
150.7676811709857
 20
268.2022673990087
 30
0.0
 11
150.7676811709857
 21
267.3689340656753
 31
0.0
 12
148.2676811709857
 22
267.785600732342
 32
0.0
 13
148.2676811709857
 23
267.785600732342
 33
0.0
  0
MTEXT
  5
296
330
280
100
AcDbEntity
  8
0
 62
     0
100
AcDbMText
 10
156.1843478376523
 20
269.8689340656753
 30
0.0
 40
2.5
 41
0.0
 46
0.0
 71
     5
 72
     1
  1
1,5
 73
     1
 44
1.0
  0
POINT
  5
297
330
280
100
AcDbEntity
  8
Defpoints
 62
     0
100
AcDbPoint
 10
146.7676811709857
 20
268.0447123270789
 30
0.0
  0
POINT
  5
298
330
280
100
AcDbEntity
  8
Defpoints
 62
     0
100
AcDbPoint
 10
148.2676811709857
 20
268.0447123270789
 30
0.0
  0
POINT
  5
299
330
280
100
AcDbEntity
  8
Defpoints
 62
     0
100
AcDbPoint
 10
148.2676811709857
 20
267.785600732342
 30
0.0
  0
ENDBLK
  5
28D
330
280
100
AcDbEntity
  8
0
100
AcDbBlockEnd
  0
BLOCK
  5
2A8
330
29C
100
AcDbEntity
  8
0
100
AcDbBlockBegin
  2
*D14
 70
     1
 10
0.0
 20
0.0
 30
0.0
  3
*D14
  1

  0
LINE
  5
2AB
330
29C
100
AcDbEntity
  8
0
 62
     0
370
    -2
100
AcDbLine
 10
130.2093304945729
 20
251.019728006126
 30
0.0
 11
120.9108251485818
 21
251.019728006126
 31
0.0
  0
LINE
  5
2AC
330
29C
100
AcDbEntity
  8
0
 62
     0
370
    -2
100
AcDbLine
 10
130.2093304945729
 20
252.519728006126
 30
0.0
 11
120.9108251485818
 21
252.519728006126
 31
0.0
  0
LINE
  5
2AD
330
29C
100
AcDbEntity
  8
0
 62
     0
370
    -2
100
AcDbLine
 10
122.1608251485818
 20
248.519728006126
 30
0.0
 11
122.1608251485818
 21
246.019728006126
 31
0.0
  0
LINE
  5
2AE
330
29C
100
AcDbEntity
  8
0
 62
     0
370
    -2
100
AcDbLine
 10
122.1608251485818
 20
255.019728006126
 30
0.0
 11
122.1608251485818
 21
263.3530613394593
 31
0.0
  0
LINE
  5
2AF
330
29C
100
AcDbEntity
  8
0
 62
     0
370
    -2
100
AcDbLine
 10
122.1608251485818
 20
251.019728006126
 30
0.0
 11
122.1608251485818
 21
252.519728006126
 31
0.0
  0
SOLID
  5
2B0
330
29C
100
AcDbEntity
  8
0
 62
     0
100
AcDbTrace
 10
121.7441584819151
 20
248.519728006126
 30
0.0
 11
122.5774918152485
 21
248.519728006126
 31
0.0
 12
122.1608251485818
 22
251.019728006126
 32
0.0
 13
122.1608251485818
 23
251.019728006126
 33
0.0
  0
SOLID
  5
2B1
330
29C
100
AcDbEntity
  8
0
 62
     0
100
AcDbTrace
 10
121.7441584819151
 20
255.019728006126
 30
0.0
 11
122.5774918152485
 21
255.019728006126
 31
0.0
 12
122.1608251485818
 22
252.519728006126
 32
0.0
 13
122.1608251485818
 23
252.519728006126
 33
0.0
  0
MTEXT
  5
2B2
330
29C
100
AcDbEntity
  8
0
 62
     0
100
AcDbMText
 10
120.0774918152484
 20
260.4363946727927
 30
0.0
 40
2.5
 41
0.0
 46
0.0
 71
     5
 72
     1
  1
1,5
 11
0.0000000000000001
 21
1.0
 31
0.0
 73
     1
 44
1.0
  0
POINT
  5
2B3
330
29C
100
AcDbEntity
  8
Defpoints
 62
     0
100
AcDbPoint
 10
130.8343304945729
 20
251.019728006126
 30
0.0
  0
POINT
  5
2B4
330
29C
100
AcDbEntity
  8
Defpoints
 62
     0
100
AcDbPoint
 10
130.8343304945729
 20
252.519728006126
 30
0.0
  0
POINT
  5
2B5
330
29C
100
AcDbEntity
  8
Defpoints
 62
     0
100
AcDbPoint
 10
122.1608251485818
 20
252.519728006126
 30
0.0
  0
ENDBLK
  5
2A9
330
29C
100
AcDbEntity
  8
0
100
AcDbBlockEnd
  0
BLOCK
  5
2C9
330
2BD
100
AcDbEntity
  8
0
100
AcDbBlockBegin
  2
*D15
 70
     1
 10
0.0
 20
0.0
 30
0.0
  3
*D15
  1

  0
LINE
  5
3CA
330
2BD
100
AcDbEntity
  8
0
 62
     0
370
    -2
100
AcDbLine
 10
141.7676811709857
 20
295.5756417239517
 30
0.0
 11
141.7676811709857
 21
304.8629848907495
 31
0.0
  0
LINE
  5
3CB
330
2BD
100
AcDbEntity
  8
0
 62
     0
370
    -2
100
AcDbLine
 10
145.7676811709857
 20
295.5756417239517
 30
0.0
 11
145.7676811709857
 21
304.8629848907495
 31
0.0
  0
LINE
  5
3CC
330
2BD
100
AcDbEntity
  8
0
 62
     0
370
    -2
100
AcDbLine
 10
139.2676811709857
 20
303.6129848907496
 30
0.0
 11
136.7676811709857
 21
303.6129848907496
 31
0.0
  0
LINE
  5
3CD
330
2BD
100
AcDbEntity
  8
0
 62
     0
370
    -2
100
AcDbLine
 10
148.2676811709857
 20
303.6129848907496
 30
0.0
 11
150.7676811709857
 21
303.6129848907496
 31
0.0
  0
LINE
  5
3CE
330
2BD
100
AcDbEntity
  8
0
 62
     0
370
    -2
100
AcDbLine
 10
141.7676811709857
 20
303.6129848907496
 30
0.0
 11
145.7676811709857
 21
303.6129848907496
 31
0.0
  0
SOLID
  5
3CF
330
2BD
100
AcDbEntity
  8
0
 62
     0
100
AcDbTrace
 10
139.2676811709857
 20
304.0296515574163
 30
0.0
 11
139.2676811709857
 21
303.1963182240829
 31
0.0
 12
141.7676811709857
 22
303.6129848907496
 32
0.0
 13
141.7676811709857
 23
303.6129848907496
 33
0.0
  0
SOLID
  5
3D0
330
2BD
100
AcDbEntity
  8
0
 62
     0
100
AcDbTrace
 10
148.2676811709857
 20
304.0296515574163
 30
0.0
 11
148.2676811709857
 21
303.1963182240829
 31
0.0
 12
145.7676811709857
 22
303.6129848907496
 32
0.0
 13
145.7676811709857
 23
303.6129848907496
 33
0.0
  0
MTEXT
  5
3D1
330
2BD
100
AcDbEntity
  8
0
 62
     0
100
AcDbMText
 10
143.7676811709857
 20
305.4879848907495
 30
0.0
 40
2.5
 41
0.0
 46
0.0
 71
     5
 72
     1
  1
4
 73
     1
 44
1.0
  0
POINT
  5
3D2
330
2BD
100
AcDbEntity
  8
Defpoints
 62
     0
100
AcDbPoint
 10
141.7676811709857
 20
294.9506417239517
 30
0.0
  0
POINT
  5
3D3
330
2BD
100
AcDbEntity
  8
Defpoints
 62
     0
100
AcDbPoint
 10
145.7676811709857
 20
294.9506417239517
 30
0.0
  0
POINT
  5
3D4
330
2BD
100
AcDbEntity
  8
Defpoints
 62
     0
100
AcDbPoint
 10
145.7676811709857
 20
303.6129848907496
 30
0.0
  0
ENDBLK
  5
2CA
330
2BD
100
AcDbEntity
  8
0
100
AcDbBlockEnd
  0
BLOCK
  5
2E5
330
2D9
100
AcDbEntity
  8
0
100
AcDbBlockBegin
  2
*D16
 70
     1
 10
0.0
 20
0.0
 30
0.0
  3
*D16
  1

  0
LINE
  5
3D5
330
2D9
100
AcDbEntity
  8
0
 62
     0
370
    -2
100
AcDbLine
 10
136.2676811709857
 20
293.8748167120115
 30
0.0
 11
136.2676811709857
 21
304.8629848907495
 31
0.0
  0
LINE
  5
3D6
330
2D9
100
AcDbEntity
  8
0
 62
     0
370
    -2
100
AcDbLine
 10
140.2676811709857
 20
293.8748167120115
 30
0.0
 11
140.2676811709857
 21
304.8629848907495
 31
0.0
  0
LINE
  5
3D7
330
2D9
100
AcDbEntity
  8
0
 62
     0
370
    -2
100
AcDbLine
 10
133.7676811709857
 20
303.6129848907496
 30
0.0
 11
131.2676811709857
 21
303.6129848907496
 31
0.0
  0
LINE
  5
3D8
330
2D9
100
AcDbEntity
  8
0
 62
     0
370
    -2
100
AcDbLine
 10
142.7676811709857
 20
303.6129848907496
 30
0.0
 11
145.2676811709857
 21
303.6129848907496
 31
0.0
  0
LINE
  5
3D9
330
2D9
100
AcDbEntity
  8
0
 62
     0
370
    -2
100
AcDbLine
 10
136.2676811709857
 20
303.6129848907496
 30
0.0
 11
140.2676811709857
 21
303.6129848907496
 31
0.0
  0
SOLID
  5
3DA
330
2D9
100
AcDbEntity
  8
0
 62
     0
100
AcDbTrace
 10
133.7676811709857
 20
304.0296515574163
 30
0.0
 11
133.7676811709857
 21
303.1963182240829
 31
0.0
 12
136.2676811709857
 22
303.6129848907496
 32
0.0
 13
136.2676811709857
 23
303.6129848907496
 33
0.0
  0
SOLID
  5
3DB
330
2D9
100
AcDbEntity
  8
0
 62
     0
100
AcDbTrace
 10
142.7676811709857
 20
304.0296515574163
 30
0.0
 11
142.7676811709857
 21
303.1963182240829
 31
0.0
 12
140.2676811709857
 22
303.6129848907496
 32
0.0
 13
140.2676811709857
 23
303.6129848907496
 33
0.0
  0
MTEXT
  5
3DC
330
2D9
100
AcDbEntity
  8
0
 62
     0
100
AcDbMText
 10
138.2676811709857
 20
305.4879848907495
 30
0.0
 40
2.5
 41
0.0
 46
0.0
 71
     5
 72
     1
  1
4
 73
     1
 44
1.0
  0
POINT
  5
3DD
330
2D9
100
AcDbEntity
  8
Defpoints
 62
     0
100
AcDbPoint
 10
136.2676811709857
 20
293.2498167120115
 30
0.0
  0
POINT
  5
3DE
330
2D9
100
AcDbEntity
  8
Defpoints
 62
     0
100
AcDbPoint
 10
140.2676811709857
 20
293.2498167120115
 30
0.0
  0
POINT
  5
3DF
330
2D9
100
AcDbEntity
  8
Defpoints
 62
     0
100
AcDbPoint
 10
140.2676811709857
 20
303.6129848907496
 30
0.0
  0
ENDBLK
  5
2E6
330
2D9
100
AcDbEntity
  8
0
100
AcDbBlockEnd
  0
BLOCK
  5
301
330
2F5
100
AcDbEntity
  8
0
100
AcDbBlockBegin
  2
*D17
 70
     1
 10
0.0
 20
0.0
 30
0.0
  3
*D17
  1

  0
LINE
  5
310
330
2F5
100
AcDbEntity
  8
0
 62
     0
370
    -2
100
AcDbLine
 10
130.7676811709857
 20
291.8971132370226
 30
0.0
 11
130.7676811709857
 21
305.1588507492204
 31
0.0
  0
LINE
  5
311
330
2F5
100
AcDbEntity
  8
0
 62
     0
370
    -2
100
AcDbLine
 10
134.7676811709857
 20
291.8971132370226
 30
0.0
 11
134.7676811709857
 21
305.1588507492204
 31
0.0
  0
LINE
  5
312
330
2F5
100
AcDbEntity
  8
0
 62
     0
370
    -2
100
AcDbLine
 10
128.2676811709857
 20
303.9088507492203
 30
0.0
 11
125.7676811709857
 21
303.9088507492203
 31
0.0
  0
LINE
  5
313
330
2F5
100
AcDbEntity
  8
0
 62
     0
370
    -2
100
AcDbLine
 10
137.2676811709857
 20
303.9088507492203
 30
0.0
 11
139.7676811709857
 21
303.9088507492203
 31
0.0
  0
LINE
  5
314
330
2F5
100
AcDbEntity
  8
0
 62
     0
370
    -2
100
AcDbLine
 10
130.7676811709857
 20
303.9088507492203
 30
0.0
 11
134.7676811709857
 21
303.9088507492203
 31
0.0
  0
SOLID
  5
315
330
2F5
100
AcDbEntity
  8
0
 62
     0
100
AcDbTrace
 10
128.2676811709857
 20
304.325517415887
 30
0.0
 11
128.2676811709857
 21
303.4921840825536
 31
0.0
 12
130.7676811709857
 22
303.9088507492203
 32
0.0
 13
130.7676811709857
 23
303.9088507492203
 33
0.0
  0
SOLID
  5
316
330
2F5
100
AcDbEntity
  8
0
 62
     0
100
AcDbTrace
 10
137.2676811709857
 20
304.325517415887
 30
0.0
 11
137.2676811709857
 21
303.4921840825536
 31
0.0
 12
134.7676811709857
 22
303.9088507492203
 32
0.0
 13
134.7676811709857
 23
303.9088507492203
 33
0.0
  0
MTEXT
  5
317
330
2F5
100
AcDbEntity
  8
0
 62
     0
100
AcDbMText
 10
132.7676811709857
 20
305.7838507492203
 30
0.0
 40
2.5
 41
0.0
 46
0.0
 71
     5
 72
     1
  1
4
 73
     1
 44
1.0
  0
POINT
  5
318
330
2F5
100
AcDbEntity
  8
Defpoints
 62
     0
100
AcDbPoint
 10
130.7676811709857
 20
291.2721132370226
 30
0.0
  0
POINT
  5
319
330
2F5
100
AcDbEntity
  8
Defpoints
 62
     0
100
AcDbPoint
 10
134.7676811709857
 20
291.2721132370226
 30
0.0
  0
POINT
  5
31A
330
2F5
100
AcDbEntity
  8
Defpoints
 62
     0
100
AcDbPoint
 10
134.7676811709857
 20
303.9088507492203
 30
0.0
  0
ENDBLK
  5
302
330
2F5
100
AcDbEntity
  8
0
100
AcDbBlockEnd
  0
BLOCK
  5
328
330
31C
100
AcDbEntity
  8
0
100
AcDbBlockBegin
  2
*D18
 70
     1
 10
0.0
 20
0.0
 30
0.0
  3
*D18
  1

  0
LINE
  5
41E
330
31C
100
AcDbEntity
  8
0
 62
     0
370
    -2
100
AcDbLine
 10
130.7676811709857
 20
297.5281165507876
 30
0.0
 11
130.7676811709857
 21
304.8629848907495
 31
0.0
  0
LINE
  5
41F
330
31C
100
AcDbEntity
  8
0
 62
     0
370
    -2
100
AcDbLine
 10
134.7676811709857
 20
297.5281165507876
 30
0.0
 11
134.7676811709857
 21
304.8629848907495
 31
0.0
  0
LINE
  5
420
330
31C
100
AcDbEntity
  8
0
 62
     0
370
    -2
100
AcDbLine
 10
128.2676811709857
 20
303.6129848907496
 30
0.0
 11
125.7676811709857
 21
303.6129848907496
 31
0.0
  0
LINE
  5
421
330
31C
100
AcDbEntity
  8
0
 62
     0
370
    -2
100
AcDbLine
 10
137.2676811709857
 20
303.6129848907496
 30
0.0
 11
139.7676811709857
 21
303.6129848907496
 31
0.0
  0
LINE
  5
422
330
31C
100
AcDbEntity
  8
0
 62
     0
370
    -2
100
AcDbLine
 10
130.7676811709857
 20
303.6129848907496
 30
0.0
 11
134.7676811709857
 21
303.6129848907496
 31
0.0
  0
SOLID
  5
423
330
31C
100
AcDbEntity
  8
0
 62
     0
100
AcDbTrace
 10
128.2676811709857
 20
304.0296515574163
 30
0.0
 11
128.2676811709857
 21
303.1963182240829
 31
0.0
 12
130.7676811709857
 22
303.6129848907496
 32
0.0
 13
130.7676811709857
 23
303.6129848907496
 33
0.0
  0
SOLID
  5
424
330
31C
100
AcDbEntity
  8
0
 62
     0
100
AcDbTrace
 10
137.2676811709857
 20
304.0296515574163
 30
0.0
 11
137.2676811709857
 21
303.1963182240829
 31
0.0
 12
134.7676811709857
 22
303.6129848907496
 32
0.0
 13
134.7676811709857
 23
303.6129848907496
 33
0.0
  0
MTEXT
  5
425
330
31C
100
AcDbEntity
  8
0
 62
     0
100
AcDbMText
 10
132.7676811709857
 20
305.4879848907495
 30
0.0
 40
2.5
 41
0.0
 46
0.0
 71
     5
 72
     1
  1
4
 73
     1
 44
1.0
  0
POINT
  5
426
330
31C
100
AcDbEntity
  8
Defpoints
 62
     0
100
AcDbPoint
 10
130.7676811709857
 20
296.9031165507876
 30
0.0
  0
POINT
  5
427
330
31C
100
AcDbEntity
  8
Defpoints
 62
     0
100
AcDbPoint
 10
134.7676811709857
 20
296.9031165507876
 30
0.0
  0
POINT
  5
428
330
31C
100
AcDbEntity
  8
Defpoints
 62
     0
100
AcDbPoint
 10
134.7676811709857
 20
303.6129848907496
 30
0.0
  0
ENDBLK
  5
329
330
31C
100
AcDbEntity
  8
0
100
AcDbBlockEnd
  0
BLOCK
  5
33E
330
338
100
AcDbEntity
  8
0
100
AcDbBlockBegin
  2
*D19
 70
     1
 10
0.0
 20
0.0
 30
0.0
  3
*D19
  1

  0
LINE
  5
429
330
338
100
AcDbEntity
  8
0
 62
     0
370
    -2
100
AcDbLine
 10
134.9387087159076
 20
262.3457069543409
 30
0.0
 11
143.8417745841397
 21
258.7994841858591
 31
0.0
  0
MTEXT
  5
42A
330
338
100
AcDbEntity
  8
0
 62
     0
100
AcDbMText
 10
138.9227983827833
 20
262.7770505575996
 30
0.0
 40
2.5
 41
0.0
 46
0.0
 71
     5
 72
     1
  1
\U+220517
 11
0.9290155688589999
 21
-0.3700406367111438
 31
0.0
 73
     1
 44
1.0
  0
SOLID
  5
42B
330
338
100
AcDbEntity
  8
0
 62
     0
100
AcDbTrace
 10
143.9959581827693
 20
259.186574006217
 30
0.0
 11
143.68759098551
 21
258.4123943655012
 31
0.0
 12
146.1643135062872
 22
257.8743825940813
 32
0.0
 13
146.1643135062872
 23
257.8743825940813
 33
0.0
  0
POINT
  5
42C
330
338
100
AcDbEntity
  8
Defpoints
 62
     0
100
AcDbPoint
 10
146.1643135062872
 20
257.8743825940813
 30
0.0
  0
POINT
  5
42D
330
338
100
AcDbEntity
  8
Defpoints
 62
     0
100
AcDbPoint
 10
130.3710488356842
 20
264.1650734181707
 30
0.0
  0
ENDBLK
  5
33F
330
338
100
AcDbEntity
  8
0
100
AcDbBlockEnd
  0
BLOCK
  5
351
330
348
100
AcDbEntity
  8
0
100
AcDbBlockBegin
  2
*D20
 70
     1
 10
0.0
 20
0.0
 30
0.0
  3
*D20
  1

  0
LINE
  5
42E
330
348
100
AcDbEntity
  8
0
 62
     0
370
    -2
100
AcDbLine
 10
159.0957127903624
 20
252.5083768288896
 30
0.0
 11
149.8388098484172
 21
256.2911995743281
 31
0.0
  0
LINE
  5
42F
330
348
100
AcDbEntity
  8
0
 62
     0
370
    -2
100
AcDbLine
 10
126.6965524935542
 20
265.7482564379243
 30
0.0
 11
124.3823267580679
 21
266.6939621242839
 31
0.0
  0
MTEXT
  5
430
330
348
100
AcDbEntity
  8
0
 62
     0
100
AcDbMText
 10
156.3336534519027
 20
255.6626046600438
 30
0.0
 40
2.5
 41
0.0
 46
0.0
 71
     5
 72
     1
  1
\U+220520
 11
0.9256902941945186
 21
-0.3782822745438456
 31
0.0
 73
     1
 44
1.0
  0
LINE
  5
431
330
348
100
AcDbEntity
  8
0
 62
     0
370
    -2
100
AcDbLine
 10
129.0107782290405
 20
264.8025507515647
 30
0.0
 11
147.5245841129309
 21
257.2369052606877
 31
0.0
  0
SOLID
  5
432
330
348
100
AcDbEntity
  8
0
 62
     0
100
AcDbTrace
 10
126.8541701079475
 20
266.133960727172
 30
0.0
 11
126.538934879161
 21
265.3625521486766
 31
0.0
 12
129.0107782290405
 22
264.8025507515647
 32
0.0
 13
129.0107782290405
 23
264.8025507515647
 33
0.0
  0
SOLID
  5
433
330
348
100
AcDbEntity
  8
0
 62
     0
100
AcDbTrace
 10
149.9964274628105
 20
256.6769038635758
 30
0.0
 11
149.6811922340239
 21
255.9054952850804
 31
0.0
 12
147.5245841129309
 22
257.2369052606877
 32
0.0
 13
147.5245841129309
 23
257.2369052606877
 33
0.0
  0
POINT
  5
434
330
348
100
AcDbEntity
  8
Defpoints
 62
     0
100
AcDbPoint
 10
147.5245841129309
 20
257.2369052606877
 30
0.0
  0
POINT
  5
435
330
348
100
AcDbEntity
  8
Defpoints
 62
     0
100
AcDbPoint
 10
129.0107782290405
 20
264.8025507515647
 30
0.0
  0
ENDBLK
  5
352
330
348
100
AcDbEntity
  8
0
100
AcDbBlockEnd
  0
BLOCK
  5
370
330
366
100
AcDbEntity
  8
0
100
AcDbBlockBegin
  2
*D21
 70
     1
 10
0.0
 20
0.0
 30
0.0
  3
*D21
  1

  0
LINE
  5
4A9
330
366
100
AcDbEntity
  8
0
 62
     0
370
    -2
100
AcDbLine
 10
128.2676811709859
 20
299.5873567372696
 30
0.0
 11
128.2676811709859
 21
312.1943195946268
 31
0.0
  0
LINE
  5
4AA
330
366
100
AcDbEntity
  8
0
 62
     0
370
    -2
100
AcDbLine
 10
148.2676811709857
 20
299.5873567372695
 30
0.0
 11
148.2676811709857
 21
312.1943195946268
 31
0.0
  0
LINE
  5
4AB
330
366
100
AcDbEntity
  8
0
 62
     0
370
    -2
100
AcDbLine
 10
130.7676811709859
 20
310.9443195946268
 30
0.0
 11
145.7676811709857
 21
310.9443195946268
 31
0.0
  0
SOLID
  5
4AC
330
366
100
AcDbEntity
  8
0
 62
     0
100
AcDbTrace
 10
130.7676811709859
 20
311.3609862612935
 30
0.0
 11
130.7676811709859
 21
310.5276529279601
 31
0.0
 12
128.2676811709859
 22
310.9443195946268
 32
0.0
 13
128.2676811709859
 23
310.9443195946268
 33
0.0
  0
SOLID
  5
4AD
330
366
100
AcDbEntity
  8
0
 62
     0
100
AcDbTrace
 10
145.7676811709857
 20
311.3609862612935
 30
0.0
 11
145.7676811709857
 21
310.5276529279601
 31
0.0
 12
148.2676811709857
 22
310.9443195946268
 32
0.0
 13
148.2676811709857
 23
310.9443195946268
 33
0.0
  0
MTEXT
  5
4AE
330
366
100
AcDbEntity
  8
0
 62
     0
100
AcDbMText
 10
138.2676811709858
 20
312.8193195946268
 30
0.0
 40
2.5
 41
0.0
 46
0.0
 71
     5
 72
     1
  1
20
 73
     1
 44
1.0
  0
POINT
  5
4AF
330
366
100
AcDbEntity
  8
Defpoints
 62
     0
100
AcDbPoint
 10
128.2676811709859
 20
298.9623567372696
 30
0.0
  0
POINT
  5
4B0
330
366
100
AcDbEntity
  8
Defpoints
 62
     0
100
AcDbPoint
 10
148.2676811709857
 20
298.9623567372695
 30
0.0
  0
POINT
  5
4B1
330
366
100
AcDbEntity
  8
Defpoints
 62
     0
100
AcDbPoint
 10
148.2676811709857
 20
310.9443195946268
 30
0.0
  0
ENDBLK
  5
371
330
366
100
AcDbEntity
  8
0
100
AcDbBlockEnd
  0
BLOCK
  5
388
330
37E
100
AcDbEntity
  8
0
100
AcDbBlockBegin
  2
*D22
 70
     1
 10
0.0
 20
0.0
 30
0.0
  3
*D22
  1

  0
LINE
  5
401
330
37E
100
AcDbEntity
  8
0
 62
     0
370
    -2
100
AcDbLine
 10
127.6426811709859
 20
298.9623567372697
 30
0.0
 11
121.2125627082018
 21
298.9623567372697
 31
0.0
  0
LINE
  5
402
330
37E
100
AcDbEntity
  8
0
 62
     0
370
    -2
100
AcDbLine
 10
127.6426811709857
 20
261.0197280061261
 30
0.0
 11
121.2125627082018
 21
261.0197280061261
 31
0.0
  0
LINE
  5
403
330
37E
100
AcDbEntity
  8
0
 62
     0
370
    -2
100
AcDbLine
 10
122.4625627082019
 20
296.4623567372697
 30
0.0
 11
122.4625627082018
 21
263.5197280061261
 31
0.0
  0
SOLID
  5
404
330
37E
100
AcDbEntity
  8
0
 62
     0
100
AcDbTrace
 10
122.0458960415352
 20
296.4623567372697
 30
0.0
 11
122.8792293748685
 21
296.4623567372697
 31
0.0
 12
122.4625627082019
 22
298.9623567372697
 32
0.0
 13
122.4625627082019
 23
298.9623567372697
 33
0.0
  0
SOLID
  5
405
330
37E
100
AcDbEntity
  8
0
 62
     0
100
AcDbTrace
 10
122.0458960415352
 20
263.5197280061261
 30
0.0
 11
122.8792293748685
 21
263.5197280061261
 31
0.0
 12
122.4625627082018
 22
261.0197280061261
 32
0.0
 13
122.4625627082018
 23
261.0197280061261
 33
0.0
  0
MTEXT
  5
406
330
37E
100
AcDbEntity
  8
0
 62
     0
100
AcDbMText
 10
120.3792293748685
 20
279.9910423716978
 30
0.0
 40
2.5
 41
0.0
 46
0.0
 71
     5
 72
     1
  1
37,9
 11
0.0000000000000001
 21
1.0
 31
0.0
 73
     1
 44
1.0
  0
POINT
  5
407
330
37E
100
AcDbEntity
  8
Defpoints
 62
     0
100
AcDbPoint
 10
128.2676811709859
 20
298.9623567372696
 30
0.0
  0
POINT
  5
408
330
37E
100
AcDbEntity
  8
Defpoints
 62
     0
100
AcDbPoint
 10
128.2676811709857
 20
261.019728006126
 30
0.0
  0
POINT
  5
409
330
37E
100
AcDbEntity
  8
Defpoints
 62
     0
100
AcDbPoint
 10
122.4625627082018
 20
261.0197280061261
 30
0.0
  0
ENDBLK
  5
389
330
37E
100
AcDbEntity
  8
0
100
AcDbBlockEnd
  0
BLOCK
  5
3A3
330
397
100
AcDbEntity
  8
0
100
AcDbBlockBegin
  2
*D23
 70
     1
 10
0.0
 20
0.0
 30
0.0
  3
*D23
  1

  0
LINE
  5
436
330
397
100
AcDbEntity
  8
0
 62
     0
370
    -2
100
AcDbLine
 10
145.7676811709857
 20
289.6160423716978
 30
0.0
 11
145.7676811709857
 21
290.2823024338756
 31
0.0
  0
LINE
  5
437
330
397
100
AcDbEntity
  8
0
 62
     0
370
    -2
100
AcDbLine
 10
148.2676811709857
 20
289.6160423716978
 30
0.0
 11
148.2676811709857
 21
290.2823024338756
 31
0.0
  0
LINE
  5
438
330
397
100
AcDbEntity
  8
0
 62
     0
370
    -2
100
AcDbLine
 10
143.2676811709857
 20
289.0323024338755
 30
0.0
 11
140.7676811709857
 21
289.0323024338755
 31
0.0
  0
LINE
  5
439
330
397
100
AcDbEntity
  8
0
 62
     0
370
    -2
100
AcDbLine
 10
150.7676811709857
 20
289.0323024338755
 30
0.0
 11
159.9343478376524
 21
289.0323024338755
 31
0.0
  0
LINE
  5
43A
330
397
100
AcDbEntity
  8
0
 62
     0
370
    -2
100
AcDbLine
 10
145.7676811709857
 20
289.0323024338755
 30
0.0
 11
148.2676811709857
 21
289.0323024338755
 31
0.0
  0
SOLID
  5
43B
330
397
100
AcDbEntity
  8
0
 62
     0
100
AcDbTrace
 10
143.2676811709857
 20
289.4489691005422
 30
0.0
 11
143.2676811709857
 21
288.6156357672089
 31
0.0
 12
145.7676811709857
 22
289.0323024338755
 32
0.0
 13
145.7676811709857
 23
289.0323024338755
 33
0.0
  0
SOLID
  5
43C
330
397
100
AcDbEntity
  8
0
 62
     0
100
AcDbTrace
 10
150.7676811709857
 20
289.4489691005422
 30
0.0
 11
150.7676811709857
 21
288.6156357672089
 31
0.0
 12
148.2676811709857
 22
289.0323024338755
 32
0.0
 13
148.2676811709857
 23
289.0323024338755
 33
0.0
  0
MTEXT
  5
43D
330
397
100
AcDbEntity
  8
0
 62
     0
100
AcDbMText
 10
156.601014504319
 20
291.1156357672089
 30
0.0
 40
2.5
 41
0.0
 46
0.0
 71
     5
 72
     1
  1
2,5
 73
     1
 44
1.0
  0
POINT
  5
43E
330
397
100
AcDbEntity
  8
Defpoints
 62
     0
100
AcDbPoint
 10
145.7676811709857
 20
288.9910423716978
 30
0.0
  0
POINT
  5
43F
330
397
100
AcDbEntity
  8
Defpoints
 62
     0
100
AcDbPoint
 10
148.2676811709857
 20
288.9910423716978
 30
0.0
  0
POINT
  5
440
330
397
100
AcDbEntity
  8
Defpoints
 62
     0
100
AcDbPoint
 10
148.2676811709857
 20
289.0323024338755
 30
0.0
  0
ENDBLK
  5
3A4
330
397
100
AcDbEntity
  8
0
100
AcDbBlockEnd
  0
BLOCK
  5
3BD
330
3B3
100
AcDbEntity
  8
0
100
AcDbBlockBegin
  2
*D24
 70
     1
 10
0.0
 20
0.0
 30
0.0
  3
*D24
  1

  0
LINE
  5
415
330
3B3
100
AcDbEntity
  8
0
 62
     0
370
    -2
100
AcDbLine
 10
134.1426811709857
 20
279.019728006126
 30
0.0
 11
125.3961956085177
 21
279.019728006126
 31
0.0
  0
LINE
  5
416
330
3B3
100
AcDbEntity
  8
0
 62
     0
370
    -2
100
AcDbLine
 10
134.1426811709857
 20
298.9623567372695
 30
0.0
 11
125.3961956085177
 21
298.9623567372695
 31
0.0
  0
LINE
  5
417
330
3B3
100
AcDbEntity
  8
0
 62
     0
370
    -2
100
AcDbLine
 10
126.6461956085177
 20
281.5197280061261
 30
0.0
 11
126.6461956085177
 21
296.4623567372695
 31
0.0
  0
SOLID
  5
418
330
3B3
100
AcDbEntity
  8
0
 62
     0
100
AcDbTrace
 10
126.229528941851
 20
281.5197280061261
 30
0.0
 11
127.0628622751843
 21
281.5197280061261
 31
0.0
 12
126.6461956085177
 22
279.019728006126
 32
0.0
 13
126.6461956085177
 23
279.019728006126
 33
0.0
  0
SOLID
  5
419
330
3B3
100
AcDbEntity
  8
0
 62
     0
100
AcDbTrace
 10
126.229528941851
 20
296.4623567372695
 30
0.0
 11
127.0628622751843
 21
296.4623567372695
 31
0.0
 12
126.6461956085177
 22
298.9623567372695
 32
0.0
 13
126.6461956085177
 23
298.9623567372695
 33
0.0
  0
MTEXT
  5
41A
330
3B3
100
AcDbEntity
  8
0
 62
     0
100
AcDbMText
 10
124.5628622751843
 20
288.9910423716978
 30
0.0
 40
2.5
 41
0.0
 46
0.0
 71
     5
 72
     1
  1
19,9
 11
0.0000000000000001
 21
1.0
 31
0.0
 73
     1
 44
1.0
  0
POINT
  5
41B
330
3B3
100
AcDbEntity
  8
Defpoints
 62
     0
100
AcDbPoint
 10
134.7676811709857
 20
279.019728006126
 30
0.0
  0
POINT
  5
41C
330
3B3
100
AcDbEntity
  8
Defpoints
 62
     0
100
AcDbPoint
 10
134.7676811709857
 20
298.9623567372695
 30
0.0
  0
POINT
  5
41D
330
3B3
100
AcDbEntity
  8
Defpoints
 62
     0
100
AcDbPoint
 10
126.6461956085177
 20
298.9623567372695
 30
0.0
  0
ENDBLK
  5
3BE
330
3B3
100
AcDbEntity
  8
0
100
AcDbBlockEnd
  0
BLOCK
  5
44C
330
442
100
AcDbEntity
  8
0
100
AcDbBlockBegin
  2
*D25
 70
     1
 10
0.0
 20
0.0
 30
0.0
  3
*D25
  1

  0
LINE
  5
44F
330
442
100
AcDbEntity
  8
0
 62
     0
370
    -2
100
AcDbLine
 10
134.1426811709857
 20
279.019728006126
 30
0.0
 11
125.3835675777104
 21
279.019728006126
 31
0.0
  0
LINE
  5
450
330
442
100
AcDbEntity
  8
0
 62
     0
370
    -2
100
AcDbLine
 10
134.1999984819323
 20
299.0009179254048
 30
0.0
 11
125.3835675777104
 21
299.0009179254048
 31
0.0
  0
LINE
  5
451
330
442
100
AcDbEntity
  8
0
 62
     0
370
    -2
100
AcDbLine
 10
126.6335675777104
 20
281.5197280061261
 30
0.0
 11
126.6335675777104
 21
296.5009179254049
 31
0.0
  0
SOLID
  5
452
330
442
100
AcDbEntity
  8
0
 62
     0
100
AcDbTrace
 10
126.2169009110437
 20
281.5197280061261
 30
0.0
 11
127.0502342443771
 21
281.5197280061261
 31
0.0
 12
126.6335675777104
 22
279.019728006126
 32
0.0
 13
126.6335675777104
 23
279.019728006126
 33
0.0
  0
SOLID
  5
453
330
442
100
AcDbEntity
  8
0
 62
     0
100
AcDbTrace
 10
126.2169009110437
 20
296.5009179254049
 30
0.0
 11
127.0502342443771
 21
296.5009179254049
 31
0.0
 12
126.6335675777104
 22
299.0009179254048
 32
0.0
 13
126.6335675777104
 23
299.0009179254048
 33
0.0
  0
MTEXT
  5
454
330
442
100
AcDbEntity
  8
0
 62
     0
100
AcDbMText
 10
124.7585675777103
 20
289.0103229657654
 30
0.0
 40
2.5
 41
0.0
 46
0.0
 71
     5
 72
     1
  1
20
 11
0.0000000000000001
 21
1.0
 31
0.0
 73
     1
 44
1.0
  0
POINT
  5
455
330
442
100
AcDbEntity
  8
Defpoints
 62
     0
100
AcDbPoint
 10
134.7676811709857
 20
279.019728006126
 30
0.0
  0
POINT
  5
456
330
442
100
AcDbEntity
  8
Defpoints
 62
     0
100
AcDbPoint
 10
134.8249984819323
 20
299.0009179254048
 30
0.0
  0
POINT
  5
457
330
442
100
AcDbEntity
  8
Defpoints
 62
     0
100
AcDbPoint
 10
126.6335675777104
 20
299.0009179254048
 30
0.0
  0
ENDBLK
  5
44D
330
442
100
AcDbEntity
  8
0
100
AcDbBlockEnd
  0
BLOCK
  5
464
330
45A
100
AcDbEntity
  8
0
100
AcDbBlockBegin
  2
*D26
 70
     1
 10
0.0
 20
0.0
 30
0.0
  3
*D26
  1

  0
LINE
  5
467
330
45A
100
AcDbEntity
  8
0
 62
     0
370
    -2
100
AcDbLine
 10
127.6426811709857
 20
261.0197280061261
 30
0.0
 11
118.3821279545686
 21
261.0197280061261
 31
0.0
  0
LINE
  5
468
330
45A
100
AcDbEntity
  8
0
 62
     0
370
    -2
100
AcDbLine
 10
127.6426811709859
 20
299.0197280061261
 30
0.0
 11
118.3821279545686
 21
299.0197280061261
 31
0.0
  0
LINE
  5
469
330
45A
100
AcDbEntity
  8
0
 62
     0
370
    -2
100
AcDbLine
 10
119.6321279545686
 20
263.5197280061261
 30
0.0
 11
119.6321279545686
 21
296.5197280061261
 31
0.0
  0
SOLID
  5
46A
330
45A
100
AcDbEntity
  8
0
 62
     0
100
AcDbTrace
 10
119.2154612879019
 20
263.5197280061261
 30
0.0
 11
120.0487946212353
 21
263.5197280061261
 31
0.0
 12
119.6321279545686
 22
261.0197280061261
 32
0.0
 13
119.6321279545686
 23
261.0197280061261
 33
0.0
  0
SOLID
  5
46B
330
45A
100
AcDbEntity
  8
0
 62
     0
100
AcDbTrace
 10
119.215461287902
 20
296.5197280061261
 30
0.0
 11
120.0487946212353
 21
296.5197280061261
 31
0.0
 12
119.6321279545686
 22
299.0197280061261
 32
0.0
 13
119.6321279545686
 23
299.0197280061261
 33
0.0
  0
MTEXT
  5
46C
330
45A
100
AcDbEntity
  8
0
 62
     0
100
AcDbMText
 10
117.7571279545686
 20
280.0197280061261
 30
0.0
 40
2.5
 41
0.0
 46
0.0
 71
     5
 72
     1
  1
38
 11
0.0000000000000001
 21
1.0
 31
0.0
 73
     1
 44
1.0
  0
POINT
  5
46D
330
45A
100
AcDbEntity
  8
Defpoints
 62
     0
100
AcDbPoint
 10
128.2676811709857
 20
261.019728006126
 30
0.0
  0
POINT
  5
46E
330
45A
100
AcDbEntity
  8
Defpoints
 62
     0
100
AcDbPoint
 10
128.2676811709859
 20
299.019728006126
 30
0.0
  0
POINT
  5
46F
330
45A
100
AcDbEntity
  8
Defpoints
 62
     0
100
AcDbPoint
 10
119.6321279545686
 20
299.0197280061261
 30
0.0
  0
ENDBLK
  5
465
330
45A
100
AcDbEntity
  8
0
100
AcDbBlockEnd
  0
BLOCK
  5
4C3
330
4B9
100
AcDbEntity
  8
0
100
AcDbBlockBegin
  2
*D27
 70
     1
 10
0.0
 20
0.0
 30
0.0
  3
*D27
  1

  0
LINE
  5
4C6
330
4B9
100
AcDbEntity
  8
0
 62
     0
370
    -2
100
AcDbLine
 10
127.6426811709857
 20
261.0197280061261
 30
0.0
 11
106.8031826299593
 21
261.0197280061261
 31
0.0
  0
LINE
  5
4C7
330
4B9
100
AcDbEntity
  8
0
 62
     0
370
    -2
100
AcDbLine
 10
127.6426811709849
 20
299.019728006126
 30
0.0
 11
106.8031826299593
 21
299.019728006126
 31
0.0
  0
LINE
  5
4C8
330
4B9
100
AcDbEntity
  8
0
 62
     0
370
    -2
100
AcDbLine
 10
108.0531826299593
 20
263.5197280061261
 30
0.0
 11
108.0531826299593
 21
296.5197280061259
 31
0.0
  0
SOLID
  5
4C9
330
4B9
100
AcDbEntity
  8
0
 62
     0
100
AcDbTrace
 10
107.6365159632926
 20
263.5197280061261
 30
0.0
 11
108.469849296626
 21
263.5197280061261
 31
0.0
 12
108.0531826299593
 22
261.0197280061261
 32
0.0
 13
108.0531826299593
 23
261.0197280061261
 33
0.0
  0
SOLID
  5
4CA
330
4B9
100
AcDbEntity
  8
0
 62
     0
100
AcDbTrace
 10
107.6365159632926
 20
296.5197280061259
 30
0.0
 11
108.469849296626
 21
296.5197280061259
 31
0.0
 12
108.0531826299593
 22
299.019728006126
 32
0.0
 13
108.0531826299593
 23
299.019728006126
 33
0.0
  0
MTEXT
  5
4CB
330
4B9
100
AcDbEntity
  8
0
 62
     0
100
AcDbMText
 10
106.1781826299593
 20
280.019728006126
 30
0.0
 40
2.5
 41
0.0
 46
0.0
 71
     5
 72
     1
  1
38
 11
0.0000000000000001
 21
1.0
 31
0.0
 73
     1
 44
1.0
  0
POINT
  5
4CC
330
4B9
100
AcDbEntity
  8
Defpoints
 62
     0
100
AcDbPoint
 10
128.2676811709857
 20
261.019728006126
 30
0.0
  0
POINT
  5
4CD
330
4B9
100
AcDbEntity
  8
Defpoints
 62
     0
100
AcDbPoint
 10
128.2676811709849
 20
299.0197280061259
 30
0.0
  0
POINT
  5
4CE
330
4B9
100
AcDbEntity
  8
Defpoints
 62
     0
100
AcDbPoint
 10
108.0531826299593
 20
299.019728006126
 30
0.0
  0
ENDBLK
  5
4C4
330
4B9
100
AcDbEntity
  8
0
100
AcDbBlockEnd
  0
BLOCK
  5
4DB
330
4D1
100
AcDbEntity
  8
0
100
AcDbBlockBegin
  2
*D28
 70
     1
 10
0.0
 20
0.0
 30
0.0
  3
*D28
  1

  0
LINE
  5
4DE
330
4D1
100
AcDbEntity
  8
0
 62
     0
370
    -2
100
AcDbLine
 10
134.1426811709857
 20
279.019728006126
 30
0.0
 11
117.8516409198655
 21
279.019728006126
 31
0.0
  0
LINE
  5
4DF
330
4D1
100
AcDbEntity
  8
0
 62
     0
370
    -2
100
AcDbLine
 10
134.1426811709857
 20
299.0197280061261
 30
0.0
 11
117.8516409198655
 21
299.0197280061262
 31
0.0
  0
LINE
  5
4E0
330
4D1
100
AcDbEntity
  8
0
 62
     0
370
    -2
100
AcDbLine
 10
119.1016409198655
 20
281.5197280061261
 30
0.0
 11
119.1016409198655
 21
296.5197280061262
 31
0.0
  0
SOLID
  5
4E1
330
4D1
100
AcDbEntity
  8
0
 62
     0
100
AcDbTrace
 10
118.6849742531988
 20
281.5197280061261
 30
0.0
 11
119.5183075865322
 21
281.5197280061261
 31
0.0
 12
119.1016409198655
 22
279.019728006126
 32
0.0
 13
119.1016409198655
 23
279.019728006126
 33
0.0
  0
SOLID
  5
4E2
330
4D1
100
AcDbEntity
  8
0
 62
     0
100
AcDbTrace
 10
118.6849742531988
 20
296.5197280061262
 30
0.0
 11
119.5183075865322
 21
296.5197280061262
 31
0.0
 12
119.1016409198655
 22
299.0197280061262
 32
0.0
 13
119.1016409198655
 23
299.0197280061262
 33
0.0
  0
MTEXT
  5
4E3
330
4D1
100
AcDbEntity
  8
0
 62
     0
100
AcDbMText
 10
117.2266409198654
 20
289.0197280061261
 30
0.0
 40
2.5
 41
0.0
 46
0.0
 71
     5
 72
     1
  1
20
 11
0.0000000000000001
 21
1.0
 31
0.0
 73
     1
 44
1.0
  0
POINT
  5
4E4
330
4D1
100
AcDbEntity
  8
Defpoints
 62
     0
100
AcDbPoint
 10
134.7676811709857
 20
279.019728006126
 30
0.0
  0
POINT
  5
4E5
330
4D1
100
AcDbEntity
  8
Defpoints
 62
     0
100
AcDbPoint
 10
134.7676811709857
 20
299.0197280061261
 30
0.0
  0
POINT
  5
4E6
330
4D1
100
AcDbEntity
  8
Defpoints
 62
     0
100
AcDbPoint
 10
119.1016409198655
 20
299.0197280061262
 30
0.0
  0
ENDBLK
  5
4DC
330
4D1
100
AcDbEntity
  8
0
100
AcDbBlockEnd
  0
ENDSEC
  0
SECTION
  2
ENTITIES
  0
CIRCLE
  5
119
102
{ACAD_REACTORS
330
346
102
}
330
1F
100
AcDbEntity
  8
0
100
AcDbCircle
 10
138.2676811709857
 20
261.019728006126
 30
0.0
 40
8.5
  0
LINE
  5
13E
330
1F
100
AcDbEntity
  8
0
100
AcDbLine
 10
134.7676811709857
 20
298.9623567372695
 30
0.0
 11
134.7676811709857
 21
279.019728006126
 31
0.0
  0
LINE
  5
140
102
{ACAD_REACTORS
330
2F3
102
}
330
1F
100
AcDbEntity
  8
0
100
AcDbLine
 10
136.2676811709857
 20
279.019728006126
 30
0.0
 11
136.2676811709857
 21
298.9623567372695
 31
0.0
  0
LINE
  5
142
102
{ACAD_REACTORS
330
2F3
102
}
330
1F
100
AcDbEntity
  8
0
100
AcDbLine
 10
140.2676811709857
 20
298.9623567372695
 30
0.0
 11
140.2676811709857
 21
279.019728006126
 31
0.0
  0
LINE
  5
144
102
{ACAD_REACTORS
330
2D7
102
}
330
1F
100
AcDbEntity
  8
0
100
AcDbLine
 10
141.7676811709857
 20
279.019728006126
 30
0.0
 11
141.7676811709857
 21
298.9623567372695
 31
0.0
  0
LINE
  5
146
102
{ACAD_REACTORS
330
2D7
102
}
330
1F
100
AcDbEntity
  8
0
100
AcDbLine
 10
145.7676811709857
 20
298.9623567372695
 30
0.0
 11
145.7676811709857
 21
267.6341062837875
 31
0.0
  0
ARC
  5
213
102
{ACAD_REACTORS
330
35C
330
4CF
102
}
330
1F
100
AcDbEntity
  8
0
100
AcDbCircle
 10
138.2676811709857
 20
261.019728006126
 30
0.0
 40
10.0
100
AcDbArc
 50
179.9999999999996
 51
0.0
  0
LINE
  5
244
330
1F
100
AcDbEntity
  8
0
100
AcDbLine
 10
130.7676811709857
 20
267.6341062837875
 30
0.0
 11
130.7676811709857
 21
299.019728006126
 31
0.0
  0
LINE
  5
2B8
330
1F
100
AcDbEntity
  8
0
100
AcDbLine
 10
148.2676811709857
 20
261.019728006126
 30
0.0
 11
148.2676811709857
 21
298.9623567372695
 31
0.0
  0
ARC
  5
2BB
330
1F
100
AcDbEntity
  8
0
100
AcDbCircle
 10
138.2676811709857
 20
261.019728006126
 30
0.0
 40
10.0
100
AcDbArc
 50
41.40962210927061
 51
138.590377890729
  0
DIMENSION
  5
2BC
102
{ACAD_XDICTIONARY
360
2CB
102
}
102
{ACAD_REACTORS
330
2D7
102
}
330
1F
100
AcDbEntity
  8
0
100
AcDbDimension
  2
*D15
 10
145.7676811709857
 20
303.6129848907496
 30
0.0
 11
143.7676811709857
 21
305.4879848907495
 31
0.0
 70
    33
 71
     5
 42
4.0
 73
     0
 74
     0
 75
     0
  3
ISO-25
100
AcDbAlignedDimension
 13
141.7676811709857
 23
294.9506417239517
 33
0.0
 14
145.7676811709857
 24
294.9506417239517
 34
0.0
  0
DIMENSION
  5
2D8
102
{ACAD_XDICTIONARY
360
2E7
102
}
102
{ACAD_REACTORS
330
2F3
102
}
330
1F
100
AcDbEntity
  8
0
100
AcDbDimension
  2
*D16
 10
140.2676811709857
 20
303.6129848907496
 30
0.0
 11
138.2676811709857
 21
305.4879848907495
 31
0.0
 70
    33
 71
     5
 42
4.0
 73
     0
 74
     0
 75
     0
  3
ISO-25
100
AcDbAlignedDimension
 13
136.2676811709857
 23
293.2498167120115
 33
0.0
 14
140.2676811709857
 24
293.2498167120115
 34
0.0
  0
DIMENSION
  5
31B
330
1F
100
AcDbEntity
  8
0
100
AcDbDimension
  2
*D18
 10
134.7676811709857
 20
303.6129848907496
 30
0.0
 11
132.7676811709857
 21
305.4879848907495
 31
0.0
 70
    33
 71
     5
 42
4.0
 73
     0
 74
     0
 75
     0
  3
ISO-25
100
AcDbAlignedDimension
 13
130.7676811709857
 23
296.9031165507876
 33
0.0
 14
134.7676811709857
 24
296.9031165507876
 34
0.0
  0
DIMENSION
  5
337
102
{ACAD_XDICTIONARY
360
340
102
}
102
{ACAD_REACTORS
330
346
102
}
330
1F
100
AcDbEntity
  8
0
100
AcDbDimension
  2
*D19
 10
130.3710488356842
 20
264.1650734181707
 30
0.0
 11
138.2289721889499
 21
261.035146365989
 31
0.0
 70
   163
 71
     5
 42
16.99999999999997
 73
     0
 74
     0
 75
     0
  3
ISO-25
100
AcDbDiametricDimension
 15
146.1643135062872
 25
257.8743825940813
 35
0.0
 40
0.0
1001
ACAD
1000
DSTYLE
1002
{
1070
   288
1070
     1
1002
}
  0
DIMENSION
  5
347
102
{ACAD_XDICTIONARY
360
353
102
}
102
{ACAD_REACTORS
330
35C
102
}
330
1F
100
AcDbEntity
  8
0
100
AcDbDimension
  2
*D20
 10
129.0107782290405
 20
264.8025507515647
 30
0.0
 11
156.3336534519027
 21
255.6626046600438
 31
0.0
 70
    35
 71
     5
 42
20.00000000000003
 73
     0
 74
     0
 75
     0
  3
ISO-25
100
AcDbDiametricDimension
 15
147.5245841129309
 25
257.2369052606877
 35
0.0
 40
0.0
1001
ACAD
1000
DSTYLE
1002
{
1070
   288
1070
     1
1002
}
  0
LINE
  5
361
102
{ACAD_REACTORS
330
4E7
102
}
330
1F
100
AcDbEntity
  8
0
100
AcDbLine
 10
134.7676811709857
 20
279.019728006126
 30
0.0
 11
136.2676811709857
 21
279.019728006126
 31
0.0
  0
LINE
  5
362
330
1F
100
AcDbEntity
  8
0
100
AcDbLine
 10
140.2676811709857
 20
279.019728006126
 30
0.0
 11
141.7676811709857
 21
279.019728006126
 31
0.0
  0
DIMENSION
  5
365
330
1F
100
AcDbEntity
  8
0
100
AcDbDimension
  2
*D21
 10
148.2676811709857
 20
310.9443195946268
 30
0.0
 11
138.2676811709858
 21
312.8193195946268
 31
0.0
 70
    33
 71
     5
 42
19.99999999999983
 73
     0
 74
     0
 75
     0
  3
ISO-25
100
AcDbAlignedDimension
 13
128.2676811709859
 23
298.9623567372696
 33
0.0
 14
148.2676811709857
 24
298.9623567372695
 34
0.0
  0
DIMENSION
  5
396
330
1F
100
AcDbEntity
  8
0
100
AcDbDimension
  2
*D23
 10
148.2676811709857
 20
289.0323024338755
 30
0.0
 11
156.601014504319
 21
291.1156357672089
 31
0.0
 70
    33
 71
     5
 42
2.5
 73
     0
 74
     0
 75
     0
  3
ISO-25
100
AcDbAlignedDimension
 13
145.7676811709857
 23
288.9910423716978
 33
0.0
 14
148.2676811709857
 24
288.9910423716978
 34
0.0
  0
LINE
  5
4B2
330
1F
100
AcDbEntity
  8
0
100
AcDbLine
 10
128.2676811709857
 20
261.0197280061261
 30
0.0
 11
128.2676811709857
 21
299.019728006126
 31
0.0
  0
LINE
  5
4B3
102
{ACAD_REACTORS
330
4CF
102
}
330
1F
100
AcDbEntity
  8
0
100
AcDbLine
 10
130.7676811709857
 20
299.019728006126
 30
0.0
 11
128.2676811709857
 21
299.019728006126
 31
0.0
  0
LINE
  5
4B4
102
{ACAD_REACTORS
330
4E7
102
}
330
1F
100
AcDbEntity
  8
0
100
AcDbLine
 10
134.7676811709857
 20
299.0197280061261
 30
0.0
 11
136.2676811709857
 21
299.0197280061261
 31
0.0
  0
LINE
  5
4B6
330
1F
100
AcDbEntity
  8
0
100
AcDbLine
 10
140.2676811709857
 20
299.0197280061261
 30
0.0
 11
141.7676811709857
 21
299.0197280061261
 31
0.0
  0
LINE
  5
4B7
330
1F
100
AcDbEntity
  8
0
100
AcDbLine
 10
145.7676811709857
 20
299.0197280061261
 30
0.0
 11
148.2676811709857
 21
299.0197280061261
 31
0.0
  0
DIMENSION
  5
4B8
102
{ACAD_XDICTIONARY
360
4C5
102
}
102
{ACAD_REACTORS
330
4CF
102
}
330
1F
100
AcDbEntity
  8
0
100
AcDbDimension
  2
*D27
 10
108.0531826299593
 20
299.019728006126
 30
0.0
 11
106.1781826299593
 21
280.019728006126
 31
0.0
 70
    32
 71
     5
 42
37.99999999999989
 73
     0
 74
     0
 75
     0
  3
ISO-25
100
AcDbAlignedDimension
 13
128.2676811709857
 23
261.019728006126
 33
0.0
 14
128.2676811709849
 24
299.0197280061259
 34
0.0
 50
90.0
100
AcDbRotatedDimension
  0
DIMENSION
  5
4D0
102
{ACAD_XDICTIONARY
360
4DD
102
}
102
{ACAD_REACTORS
330
4E7
102
}
330
1F
100
AcDbEntity
  8
0
100
AcDbDimension
  2
*D28
 10
119.1016409198655
 20
299.0197280061262
 30
0.0
 11
117.2266409198654
 21
289.0197280061261
 31
0.0
 70
    32
 71
     5
 42
20.00000000000011
 73
     0
 74
     0
 75
     0
  3
ISO-25
100
AcDbAlignedDimension
 13
134.7676811709857
 23
279.019728006126
 33
0.0
 14
134.7676811709857
 24
299.0197280061261
 34
0.0
 50
90.0
100
AcDbRotatedDimension
  0
ENDSEC
  0
SECTION
  2
OBJECTS
  0
DICTIONARY
  5
C
330
0
100
AcDbDictionary
281
     1
  3
ACAD_COLOR
350
6B
  3
ACAD_GROUP
350
D
  3
ACAD_LAYOUT
350
1A
  3
ACAD_MATERIAL
350
6A
  3
ACAD_MLINESTYLE
350
17
  3
ACAD_PLOTSETTINGS
350
19
  3
ACAD_PLOTSTYLENAME
350
E
  3
ACAD_TABLESTYLE
350
7E
  3
ACAD_VISUALSTYLE
350
EF
  3
AcDbVariableDictionary
350
5E
  0
DICTIONARY
  5
215
330
1F
100
AcDbDictionary
280
     1
281
     1
  3
ACAD_SORTENTS
360
216
  0
DICTIONARY
  5
2CB
330
2BC
100
AcDbDictionary
280
     1
281
     1
  3
ACAD_DIMASSOC
360
2D7
  0
DICTIONARY
  5
2E7
330
2D8
100
AcDbDictionary
280
     1
281
     1
  3
ACAD_DIMASSOC
360
2F3
  0
DICTIONARY
  5
340
330
337
100
AcDbDictionary
280
     1
281
     1
  3
ACAD_DIMASSOC
360
346
  0
DICTIONARY
  5
353
330
347
100
AcDbDictionary
280
     1
281
     1
  3
ACAD_DIMASSOC
360
35C
  0
DICTIONARY
  5
4C5
330
4B8
100
AcDbDictionary
280
     1
281
     1
  3
ACAD_DIMASSOC
360
4CF
  0
DICTIONARY
  5
4DD
330
4D0
100
AcDbDictionary
280
     1
281
     1
  3
ACAD_DIMASSOC
360
4E7
  0
DICTIONARY
  5
6B
102
{ACAD_REACTORS
330
C
102
}
330
C
100
AcDbDictionary
281
     1
  0
DICTIONARY
  5
D
102
{ACAD_REACTORS
330
C
102
}
330
C
100
AcDbDictionary
281
     1
  0
DICTIONARY
  5
1A
102
{ACAD_REACTORS
330
C
102
}
330
C
100
AcDbDictionary
281
     1
  3
Layout1
350
D3
  3
Layout2
350
D7
  3
Model
350
22
  0
DICTIONARY
  5
6A
102
{ACAD_REACTORS
330
C
102
}
330
C
100
AcDbDictionary
281
     1
  3
ByBlock
350
ED
  3
ByLayer
350
EC
  3
Global
350
EE
  0
DICTIONARY
  5
17
102
{ACAD_REACTORS
330
C
102
}
330
C
100
AcDbDictionary
281
     1
  3
Standard
350
18
  0
DICTIONARY
  5
19
102
{ACAD_REACTORS
330
C
102
}
330
C
100
AcDbDictionary
281
     1
  0
ACDBDICTIONARYWDFLT
  5
E
102
{ACAD_REACTORS
330
C
102
}
330
C
100
AcDbDictionary
281
     1
  3
Normal
350
F
100
AcDbDictionaryWithDefault
340
F
  0
DICTIONARY
  5
7E
102
{ACAD_REACTORS
330
C
102
}
330
C
100
AcDbDictionary
281
     1
  3
Standard
350
7F
  0
DICTIONARY
  5
EF
102
{ACAD_REACTORS
330
C
102
}
330
C
100
AcDbDictionary
281
     1
  3
2dWireframe
350
F5
  3
3D Hidden
350
F7
  3
3dWireframe
350
F6
  3
Basic
350
F4
  3
Brighten
350
FB
  3
ColorChange
350
FF
  3
Conceptual
350
F8
  3
Dim
350
FA
  3
Facepattern
350
FE
  3
Flat
350
F0
  3
FlatWithEdges
350
F1
  3
Gouraud
350
F2
  3
GouraudWithEdges
350
F3
  3
Linepattern
350
FD
  3
Realistic
350
F9
  3
Thicken
350
FC
  0
DICTIONARY
  5
5E
102
{ACAD_REACTORS
330
C
102
}
330
C
100
AcDbDictionary
281
     1
  3
CTABLESTYLE
350
84
  3
DIMASSOC
350
5F
  3
HIDETEXT
350
63
  0
SORTENTSTABLE
  5
216
102
{ACAD_REACTORS
330
215
102
}
330
215
100
AcDbSortentsTable
330
1F
331
142
  5
217
331
140
  5
213
331
13E
  5
146
331
2B8
  5
2B9
331
2BB
  5
21F
331
119
  5
119
331
213
  5
21E
331
146
  5
21B
331
244
  5
246
331
144
  5
219
  0
DIMASSOC
  5
2D7
102
{ACAD_REACTORS
330
2CB
102
}
330
2CB
100
AcDbDimAssoc
330
2BC
 90
        3
 70
     0
 71
     0
  1
AcDbOsnapPointRef
 72
    10
331
144
 73
     2
 91
        0
 40
0.7988372010830791
 10
0.0
 20
0.0
 30
0.0
 75
     0
  1
AcDbOsnapPointRef
 72
     8
331
146
 73
     2
 91
        0
 40
0.2011627989169209
 10
0.0
 20
0.0
 30
0.0
 75
     1
  1
AcDbOsnapPointRef
 72
    10
331
144
 73
     2
 91
        0
 40
0.7988372010830791
 10
0.0
 20
0.0
 30
0.0
 75
     0
  0
DIMASSOC
  5
2F3
102
{ACAD_REACTORS
330
2E7
102
}
330
2E7
100
AcDbDimAssoc
330
2D8
 90
        3
 70
     0
 71
     0
  1
AcDbOsnapPointRef
 72
    10
331
140
 73
     2
 91
        0
 40
0.713551302475134
 10
0.0
 20
0.0
 30
0.0
 75
     0
  1
AcDbOsnapPointRef
 72
     8
331
142
 73
     2
 91
        0
 40
0.2864486975248659
 10
0.0
 20
0.0
 30
0.0
 75
     1
  1
AcDbOsnapPointRef
 72
    10
331
140
 73
     2
 91
        0
 40
0.713551302475134
 10
0.0
 20
0.0
 30
0.0
 75
     0
  0
DIMASSOC
  5
346
102
{ACAD_REACTORS
330
340
102
}
330
340
100
AcDbDimAssoc
330
337
 90
        2
 70
     0
 71
     0
  1
AcDbOsnapPointRef
 72
     3
331
119
 73
     2
 91
        0
 40
0.0
 10
0.0
 20
0.0
 30
0.0
 75
     0
  0
DIMASSOC
  5
35C
102
{ACAD_REACTORS
330
353
102
}
330
353
100
AcDbDimAssoc
330
347
 90
        2
 70
     0
 71
     0
  1
AcDbOsnapPointRef
 72
     3
331
213
 73
     2
 91
        0
 40
0.0
 10
0.0
 20
0.0
 30
0.0
 75
     0
  0
DIMASSOC
  5
4CF
102
{ACAD_REACTORS
330
4C5
102
}
330
4C5
100
AcDbDimAssoc
330
4B8
 90
        3
 70
     0
 71
     0
  1
AcDbOsnapPointRef
 72
     5
331
213
 73
     2
 91
        0
 40
3.141592653589793
 10
0.0
 20
0.0
 30
0.0
 75
     0
  1
AcDbOsnapPointRef
 72
     8
331
4B3
 73
     2
 91
        0
 40
1.0
 10
0.0
 20
0.0
 30
0.0
 75
     1
  1
AcDbOsnapPointRef
 72
     5
331
213
 73
     2
 91
        0
 40
3.141592653589793
 10
0.0
 20
0.0
 30
0.0
 75
     0
  0
DIMASSOC
  5
4E7
102
{ACAD_REACTORS
330
4DD
102
}
330
4DD
100
AcDbDimAssoc
330
4D0
 90
        3
 70
     0
 71
     0
  1
AcDbOsnapPointRef
 72
    13
331
361
 73
     2
 91
        0
 40
0.0
 10
0.0
 20
0.0
 30
2.000000000000000E+50
 75
     0
  1
AcDbOsnapPointRef
 72
    13
331
4B4
 73
     2
 91
        0
 40
0.0
 10
0.0
 20
0.0
 30
2.000000000000000E+50
 75
     0
  0
LAYOUT
  5
D3
102
{ACAD_REACTORS
330
1A
102
}
330
1A
100
AcDbPlotSettings
  1

  2
C:\Documents and Settings\basas\Application Data\Autodesk\AutoCAD 2005\R16.1\enu\plotters\Default Windows System Printer.pc3
  4

  6

 40
0.0
 41
0.0
 42
0.0
 43
0.0
 44
0.0
 45
0.0
 46
0.0
 47
0.0
 48
0.0
 49
0.0
140
0.0
141
0.0
142
1.0
143
1.0
 70
   688
 72
     0
 73
     0
 74
     5
  7

 75
    16
147
1.0
 76
     0
 77
     2
 78
   300
148
0.0
149
0.0
100
AcDbLayout
  1
Layout1
 70
     1
 71
     1
 10
0.0
 20
0.0
 11
12.0
 21
9.0
 12
0.0
 22
0.0
 32
0.0
 14
0.0
 24
0.0
 34
0.0
 15
0.0
 25
0.0
 35
0.0
146
0.0
 13
0.0
 23
0.0
 33
0.0
 16
1.0
 26
0.0
 36
0.0
 17
0.0
 27
1.0
 37
0.0
 76
     0
330
D2
  0
LAYOUT
  5
D7
102
{ACAD_REACTORS
330
1A
102
}
330
1A
100
AcDbPlotSettings
  1

  2
C:\Documents and Settings\basas\Application Data\Autodesk\AutoCAD 2005\R16.1\enu\plotters\Default Windows System Printer.pc3
  4

  6

 40
0.0
 41
0.0
 42
0.0
 43
0.0
 44
0.0
 45
0.0
 46
0.0
 47
0.0
 48
0.0
 49
0.0
140
0.0
141
0.0
142
1.0
143
1.0
 70
   688
 72
     0
 73
     0
 74
     5
  7

 75
    16
147
1.0
 76
     0
 77
     2
 78
   300
148
0.0
149
0.0
100
AcDbLayout
  1
Layout2
 70
     1
 71
     2
 10
0.0
 20
0.0
 11
12.0
 21
9.0
 12
0.0
 22
0.0
 32
0.0
 14
0.0
 24
0.0
 34
0.0
 15
0.0
 25
0.0
 35
0.0
146
0.0
 13
0.0
 23
0.0
 33
0.0
 16
1.0
 26
0.0
 36
0.0
 17
0.0
 27
1.0
 37
0.0
 76
     0
330
D6
  0
LAYOUT
  5
22
102
{ACAD_REACTORS
330
1A
102
}
330
1A
100
AcDbPlotSettings
  1

  2
none_device
  4
ISO_A4_(210.00_x_297.00_MM)
  6

 40
7.5
 41
20.0
 42
7.5
 43
20.0
 44
210.0
 45
297.0
 46
11.54999923706054
 47
-13.65000009536743
 48
0.0
 49
0.0
140
0.0
141
0.0
142
1.0
143
8.704084754739808
 70
 11952
 72
     1
 73
     0
 74
     0
  7

 75
     0
147
0.1148885871608098
 76
     0
 77
     2
 78
   300
148
0.0
149
0.0
100
AcDbLayout
  1
Model
 70
     1
 71
     0
 10
0.0
 20
0.0
 11
12.0
 21
9.0
 12
0.0
 22
0.0
 32
0.0
 14
0.0
 24
0.0
 34
0.0
 15
0.0
 25
0.0
 35
0.0
146
0.0
 13
0.0
 23
0.0
 33
0.0
 16
1.0
 26
0.0
 36
0.0
 17
0.0
 27
1.0
 37
0.0
 76
     0
330
1F
331
EA
1001
ACAD_PSEXT
1000
None
1000
None
1000
Not applicable
1000
The layout will not be plotted unless a new plotter configuration name is selected.
1070
     0
  0
MATERIAL
  5
ED
102
{ACAD_REACTORS
330
6A
102
}
330
6A
100
AcDbMaterial
  1
ByBlock
  0
MATERIAL
  5
EC
102
{ACAD_REACTORS
330
6A
102
}
330
6A
100
AcDbMaterial
  1
ByLayer
  0
MATERIAL
  5
EE
102
{ACAD_REACTORS
330
6A
102
}
330
6A
100
AcDbMaterial
  1
Global
  0
MLINESTYLE
  5
18
102
{ACAD_REACTORS
330
17
102
}
330
17
100
AcDbMlineStyle
  2
STANDARD
 70
     0
  3

 62
   256
 51
90.0
 52
90.0
 71
     2
 49
0.5
 62
   256
  6
BYLAYER
 49
-0.5
 62
   256
  6
BYLAYER
  0
ACDBPLACEHOLDER
  5
F
102
{ACAD_REACTORS
330
E
102
}
330
E
  0
TABLESTYLE
  5
7F
102
{ACAD_REACTORS
330
7E
102
}
330
7E
100
AcDbTableStyle
  3
Standard
 70
     0
 71
     0
 40
1.5
 41
1.5
280
     0
281
     0
  7
Standard
140
4.5
170
     2
 62
     0
 63
     7
283
     0
 90
      512
 91
        0
  1

274
    -2
284
     1
 64
     0
275
    -2
285
     1
 65
     0
276
    -2
286
     1
 66
     0
277
    -2
287
     1
 67
     0
278
    -2
288
     1
 68
     0
279
    -2
289
     1
 69
     0
  7
Standard
140
6.0
170
     5
 62
     0
 63
     7
283
     0
 90
      512
 91
        0
  1

274
    -2
284
     1
 64
     0
275
    -2
285
     1
 65
     0
276
    -2
286
     1
 66
     0
277
    -2
287
     1
 67
     0
278
    -2
288
     1
 68
     0
279
    -2
289
     1
 69
     0
  7
Standard
140
4.5
170
     5
 62
     0
 63
     7
283
     0
 90
      512
 91
        0
  1

274
    -2
284
     1
 64
     0
275
    -2
285
     1
 65
     0
276
    -2
286
     1
 66
     0
277
    -2
287
     1
 67
     0
278
    -2
288
     1
 68
     0
279
    -2
289
     1
 69
     0
  0
VISUALSTYLE
  5
F5
102
{ACAD_REACTORS
330
EF
102
}
330
EF
100
AcDbVisualStyle
  2
2dWireframe
 70
     4
 71
     0
 72
     2
 73
     1
 90
        0
 40
-0.6
 41
-30.0
 62
     5
 63
     7
421
 16777215
 74
     1
 91
        4
 64
     7
 65
   257
 75
     1
175
     1
 42
1.0
 92
        0
 66
   257
 43
1.0
 76
     1
 77
     6
 78
     2
 67
     7
 79
     5
170
     0
171
     0
290
     0
174
     0
 93
        1
 44
0.0
173
     0
291
     0
 45
0.0
  0
VISUALSTYLE
  5
F7
102
{ACAD_REACTORS
330
EF
102
}
330
EF
100
AcDbVisualStyle
  2
3D Hidden
 70
     6
 71
     1
 72
     2
 73
     2
 90
        0
 40
-0.6
 41
-30.0
 62
     5
 63
     7
421
 16777215
 74
     2
 91
        2
 64
     7
 65
   257
 75
     2
175
     1
 42
40.0
 92
        0
 66
   257
 43
1.0
 76
     1
 77
     6
 78
     2
 67
     7
 79
     3
170
     0
171
     0
290
     0
174
     0
 93
        1
 44
0.0
173
     0
291
     0
 45
0.0
  0
VISUALSTYLE
  5
F6
102
{ACAD_REACTORS
330
EF
102
}
330
EF
100
AcDbVisualStyle
  2
3dWireframe
 70
     5
 71
     0
 72
     2
 73
     1
 90
        0
 40
-0.6
 41
-30.0
 62
     5
 63
     7
421
 16777215
 74
     1
 91
        4
 64
     7
 65
   257
 75
     1
175
     1
 42
1.0
 92
        0
 66
   257
 43
1.0
 76
     1
 77
     6
 78
     2
 67
     7
 79
     5
170
     0
171
     0
290
     0
174
     0
 93
        1
 44
0.0
173
     0
291
     0
 45
0.0
  0
VISUALSTYLE
  5
F4
102
{ACAD_REACTORS
330
EF
102
}
330
EF
100
AcDbVisualStyle
  2
Basic
 70
     7
 71
     1
 72
     0
 73
     1
 90
        0
 40
-0.6
 41
-30.0
 62
     5
 63
     7
421
 16777215
 74
     0
 91
        4
 64
     7
 65
   257
 75
     1
175
     1
 42
1.0
 92
        8
 66
     7
 43
1.0
 76
     1
 77
     6
 78
     2
 67
     7
 79
     5
170
     0
171
     0
290
     0
174
     0
 93
        1
 44
0.0
173
     0
291
     1
 45
0.0
  0
VISUALSTYLE
  5
FB
102
{ACAD_REACTORS
330
EF
102
}
330
EF
100
AcDbVisualStyle
  2
Brighten
 70
    12
 71
     2
 72
     2
 73
     1
 90
        0
 40
-0.6
 41
-30.0
 62
     5
 63
     7
421
 16777215
 74
     1
 91
        4
 64
     7
 65
   257
 75
     1
175
     1
 42
1.0
 92
        8
 66
     7
 43
1.0
 76
     1
 77
     6
 78
     2
 67
     7
 79
     5
170
     0
171
     0
290
     0
174
     0
 93
        1
 44
50.0
173
     0
291
     1
 45
0.0
  0
VISUALSTYLE
  5
FF
102
{ACAD_REACTORS
330
EF
102
}
330
EF
100
AcDbVisualStyle
  2
ColorChange
 70
    16
 71
     2
 72
     2
 73
     3
 90
        0
 40
-0.6
 41
-30.0
 62
     5
 63
     8
421
  8421504
 74
     1
 91
        4
 64
     7
 65
   257
 75
     1
175
     1
 42
1.0
 92
        8
 66
     8
424
  8421504
 43
1.0
 76
     1
 77
     6
 78
     2
 67
     7
 79
     5
170
     0
171
     0
290
     0
174
     0
 93
        1
 44
0.0
173
     0
291
     1
 45
0.0
  0
VISUALSTYLE
  5
F8
102
{ACAD_REACTORS
330
EF
102
}
330
EF
100
AcDbVisualStyle
  2
Conceptual
 70
     9
 71
     3
 72
     2
 73
     1
 90
        0
 40
-0.6
 41
-30.0
 62
     5
 63
     7
421
 16777215
 74
     2
 91
        2
 64
     7
 65
   257
 75
     1
175
     1
 42
40.0
 92
        8
 66
     7
 43
1.0
 76
     1
 77
     6
 78
     2
 67
     7
 79
     3
170
     0
171
     0
290
     0
174
     0
 93
        1
 44
0.0
173
     0
291
     0
 45
0.0
  0
VISUALSTYLE
  5
FA
102
{ACAD_REACTORS
330
EF
102
}
330
EF
100
AcDbVisualStyle
  2
Dim
 70
    11
 71
     2
 72
     2
 73
     1
 90
        0
 40
-0.6
 41
-30.0
 62
     5
 63
     7
421
 16777215
 74
     1
 91
        4
 64
     7
 65
   257
 75
     1
175
     1
 42
1.0
 92
        8
 66
     7
 43
1.0
 76
     1
 77
     6
 78
     2
 67
     7
 79
     5
170
     0
171
     0
290
     0
174
     0
 93
        1
 44
-50.0
173
     0
291
     1
 45
0.0
  0
VISUALSTYLE
  5
FE
102
{ACAD_REACTORS
330
EF
102
}
330
EF
100
AcDbVisualStyle
  2
Facepattern
 70
    15
 71
     2
 72
     2
 73
     1
 90
        0
 40
-0.6
 41
-30.0
 62
     5
 63
     7
421
 16777215
 74
     1
 91
        4
 64
     7
 65
   257
 75
     1
175
     1
 42
1.0
 92
        8
 66
     7
 43
1.0
 76
     1
 77
     6
 78
     2
 67
     7
 79
     5
170
     0
171
     0
290
     0
174
     0
 93
        1
 44
0.0
173
     0
291
     1
 45
0.0
  0
VISUALSTYLE
  5
F0
102
{ACAD_REACTORS
330
EF
102
}
330
EF
100
AcDbVisualStyle
  2
Flat
 70
     0
 71
     2
 72
     1
 73
     1
 90
        2
 40
-0.6
 41
30.0
 62
     5
 63
     7
421
 16777215
 74
     0
 91
        4
 64
     7
 65
   257
 75
     1
175
     1
 42
1.0
 92
        8
 66
     7
 43
1.0
 76
     1
 77
     6
 78
     2
 67
     7
 79
     5
170
     0
171
     0
290
     0
174
     0
 93
        1
 44
0.0
173
     0
291
     1
 45
0.0
  0
VISUALSTYLE
  5
F1
102
{ACAD_REACTORS
330
EF
102
}
330
EF
100
AcDbVisualStyle
  2
FlatWithEdges
 70
     1
 71
     2
 72
     1
 73
     1
 90
        2
 40
-0.6
 41
30.0
 62
     5
 63
     7
421
 16777215
 74
     1
 91
        4
 64
     7
 65
   257
 75
     1
175
     1
 42
1.0
 92
        0
 66
   257
 43
1.0
 76
     1
 77
     6
 78
     2
 67
     7
 79
     5
170
     0
171
     0
290
     0
174
     0
 93
        1
 44
0.0
173
     0
291
     1
 45
0.0
  0
VISUALSTYLE
  5
F2
102
{ACAD_REACTORS
330
EF
102
}
330
EF
100
AcDbVisualStyle
  2
Gouraud
 70
     2
 71
     2
 72
     2
 73
     1
 90
        2
 40
-0.6
 41
30.0
 62
     5
 63
     7
421
 16777215
 74
     0
 91
        4
 64
     7
 65
   257
 75
     1
175
     1
 42
1.0
 92
        0
 66
     7
 43
1.0
 76
     1
 77
     6
 78
     2
 67
     7
 79
     5
170
     0
171
     0
290
     0
174
     0
 93
        1
 44
0.0
173
     0
291
     1
 45
0.0
  0
VISUALSTYLE
  5
F3
102
{ACAD_REACTORS
330
EF
102
}
330
EF
100
AcDbVisualStyle
  2
GouraudWithEdges
 70
     3
 71
     2
 72
     2
 73
     1
 90
        2
 40
-0.6
 41
30.0
 62
     5
 63
     7
421
 16777215
 74
     1
 91
        4
 64
     7
 65
   257
 75
     1
175
     1
 42
1.0
 92
        0
 66
   257
 43
1.0
 76
     1
 77
     6
 78
     2
 67
     7
 79
     5
170
     0
171
     0
290
     0
174
     0
 93
        1
 44
0.0
173
     0
291
     1
 45
0.0
  0
VISUALSTYLE
  5
FD
102
{ACAD_REACTORS
330
EF
102
}
330
EF
100
AcDbVisualStyle
  2
Linepattern
 70
    14
 71
     2
 72
     2
 73
     1
 90
        0
 40
-0.6
 41
-30.0
 62
     5
 63
     7
421
 16777215
 74
     1
 91
        4
 64
     7
 65
   257
 75
     7
175
     7
 42
1.0
 92
        8
 66
     7
 43
1.0
 76
     1
 77
     6
 78
     2
 67
     7
 79
     5
170
     0
171
     0
290
     0
174
     0
 93
        1
 44
0.0
173
     0
291
     1
 45
0.0
  0
VISUALSTYLE
  5
F9
102
{ACAD_REACTORS
330
EF
102
}
330
EF
100
AcDbVisualStyle
  2
Realistic
 70
     8
 71
     2
 72
     2
 73
     1
 90
        0
 40
-0.6
 41
-30.0
 62
     5
 63
     7
421
 16777215
 74
     1
 91
        0
 64
     7
 65
   257
 75
     1
175
     1
 42
1.0
 92
        8
 66
     8
424
  7895160
 43
1.0
 76
     1
 77
     6
 78
     2
 67
     7
 79
     5
170
     0
171
     0
290
     0
174
     0
 93
       13
 44
0.0
173
     0
291
     0
 45
0.0
  0
VISUALSTYLE
  5
FC
102
{ACAD_REACTORS
330
EF
102
}
330
EF
100
AcDbVisualStyle
  2
Thicken
 70
    13
 71
     2
 72
     2
 73
     1
 90
        0
 40
-0.6
 41
-30.0
 62
     5
 63
     7
421
 16777215
 74
     1
 91
        4
 64
     7
 65
   257
 75
     1
175
     1
 42
1.0
 92
       12
 66
     7
 43
1.0
 76
     1
 77
     6
 78
     2
 67
     7
 79
     5
170
     0
171
     0
290
     0
174
     0
 93
        1
 44
0.0
173
     0
291
     1
 45
0.0
  0
DICTIONARYVAR
  5
84
102
{ACAD_REACTORS
330
5E
102
}
330
5E
100
DictionaryVariables
280
     0
  1
STANDARD
  0
DICTIONARYVAR
  5
5F
102
{ACAD_REACTORS
330
5E
102
}
330
5E
100
DictionaryVariables
280
     0
  1
2
  0
DICTIONARYVAR
  5
63
102
{ACAD_REACTORS
330
5E
102
}
330
5E
100
DictionaryVariables
280
     0
  1
1
  0
ENDSEC
  0
EOF
